<?xml version="1.0" standalone="no"?>
<!DOCTYPE svg PUBLIC "-//W3C//DTD SVG 1.1//EN" "http://www.w3.org/Graphics/SVG/1.1/DTD/svg11.dtd" >
<svg xmlns="http://www.w3.org/2000/svg">
<metadata></metadata>
<defs>
<font id="qanelas_softmedium" horiz-adv-x="497" >
<font-face units-per-em="2048" ascent="1638" descent="-410" />
<missing-glyph horiz-adv-x="512" />
<glyph unicode="&#xfb01;" horiz-adv-x="1067" d="M31 895v85q0 44 43 44h122v31q0 202 113.5 303t333.5 101q78 0 172 -17q39 -9 39 -48v-76q0 -21 -12.5 -32.5t-34.5 -8.5q-72 10 -164 10q-139 0 -204 -52t-65 -180v-31h458h55q44 0 44 -44v-936q0 -44 -44 -44h-91q-43 0 -43 44v808h-379v-808q0 -44 -44 -44h-91 q-43 0 -43 44v808h-122q-43 0 -43 43z" />
<glyph unicode="&#xfb02;" horiz-adv-x="1067" d="M31 895v85q0 44 43 44h122v31q0 202 113.5 303t333.5 101q120 0 249 -23q39 -8 39 -47v-1345q0 -44 -44 -44h-91q-43 0 -43 44v1251q-47 5 -110 5q-137 0 -203 -57.5t-66 -187.5v-31h169q43 0 43 -44v-85q0 -43 -43 -43h-169v-808q0 -44 -44 -44h-91q-43 0 -43 44v808 h-122q-43 0 -43 43z" />
<glyph horiz-adv-x="0" />
<glyph horiz-adv-x="682" />
<glyph unicode=" "  horiz-adv-x="512" />
<glyph unicode="&#x09;" horiz-adv-x="512" />
<glyph unicode="&#xa0;" horiz-adv-x="512" />
<glyph unicode="!" d="M138 44v133q0 43 44 43h133q43 0 43 -43v-133q0 -44 -43 -44h-133q-44 0 -44 44zM141 1024v366q0 44 43 44h128q44 0 44 -44v-366l-35 -571q-1 -33 -37 -33h-71q-35 0 -37 33z" />
<glyph unicode="&#x22;" horiz-adv-x="681" d="M100 1393q-3 41 38 41h98q41 0 38 -41l-21 -350q-3 -39 -42 -39h-48q-40 0 -43 39zM407 1393q-3 41 38 41h98q41 0 38 -41l-20 -350q-3 -39 -43 -39h-48q-39 0 -42 39z" />
<glyph unicode="#" horiz-adv-x="1239" d="M65 503l9 62q6 39 48 39h198l37 225h-193q-22 0 -32.5 13t-6.5 35l10 61q6 40 47 40h200l52 314q6 39 46 39h70q22 0 32.5 -12.5t6.5 -34.5l-51 -306h250l53 314q6 39 46 39h69q22 0 33 -12.5t7 -34.5l-51 -306h189q22 0 33 -13t7 -35l-10 -61q-6 -40 -48 -40h-196 l-37 -225h191q22 0 32.5 -12.5t6.5 -34.5l-9 -62q-6 -39 -48 -39h-198l-52 -314q-6 -40 -46 -40h-70q-22 0 -32.5 13t-6.5 35l51 306h-250l-53 -314q-6 -40 -46 -40h-69q-22 0 -33 13t-7 35l51 306h-191q-22 0 -32.5 12.5t-6.5 34.5zM476 604h250l38 225h-250z" />
<glyph unicode="$" horiz-adv-x="1122" d="M74 379q-3 45 42 45h104q39 0 44 -43q12 -90 73 -145t161 -71v488q-48 18 -84 33t-79.5 38t-75 46t-63 55.5t-51 68.5t-32 83t-12.5 101q0 110 56.5 194.5t144.5 129.5t196 55v140q0 41 41 41h46q41 0 41 -41v-142q159 -19 269.5 -117t125.5 -260q3 -46 -42 -46h-102 q-39 0 -44 42q-12 80 -67 130t-140 65v-476q54 -20 88.5 -34.5t84 -38.5t81 -46t67.5 -55.5t56.5 -69t34 -83t13.5 -101.5q0 -114 -59.5 -201t-154 -133.5t-211.5 -54.5v-140q0 -41 -41 -41h-46q-41 0 -41 41v143q-176 20 -293 124t-131 276zM291 1078q0 -82 54 -136 t153 -98v427q-93 -13 -150 -63t-57 -130zM626 161q106 10 171 64t65 140q0 83 -61.5 138.5t-174.5 101.5v-444z" />
<glyph unicode="%" horiz-adv-x="1566" d="M113 1142q0 133 93 225t231 92q139 0 231 -91.5t92 -225.5t-91.5 -226t-231.5 -92q-138 0 -231 92.5t-93 225.5zM215.5 15q-8.5 15 6.5 37l949 1353q21 29 53 29h92q26 0 35 -15.5t-6 -37.5l-952 -1353q-20 -28 -52 -28h-91q-26 0 -34.5 15zM272 1142q0 -71 46 -119 t118 -48t118.5 48.5t46.5 118.5q0 71 -46 118.5t-119 47.5q-72 0 -118 -47.5t-46 -118.5zM807 293q0 133 93 225t231 92t231 -92t93 -225t-93 -225.5t-231 -92.5t-231 92.5t-93 225.5zM967 293q0 -71 45.5 -119t117.5 -48t118.5 48.5t46.5 118.5q0 71 -46 118.5t-119 47.5 q-72 0 -117.5 -47.5t-45.5 -118.5z" />
<glyph unicode="&#x26;" horiz-adv-x="1384" d="M97 398q0 119 58 220t166 170q-102 126 -102 274q0 177 127.5 287t311.5 110q83 0 159 -24t138.5 -70t103.5 -120.5t49 -167.5q1 -21 -10.5 -33t-32.5 -12h-103q-39 0 -45 43q-14 98 -86 149t-173 51q-108 0 -179 -58.5t-71 -160.5q0 -62 35 -118t98 -119l453 -460 q60 110 67 271q2 44 44 44h103q43 0 43 -29q-7 -246 -125 -420l169 -171q20 -21 13 -37.5t-36 -16.5h-139q-32 0 -54 22l-74 75q-162 -123 -411 -123q-215 0 -356 116t-141 308zM288 407q0 -114 85.5 -183.5t228.5 -69.5q165 0 273 73l-433 435q-78 -46 -116 -113t-38 -142z " />
<glyph unicode="'" horiz-adv-x="374" d="M100 1393q-3 41 38 41h98q41 0 38 -41l-21 -350q-3 -39 -42 -39h-48q-40 0 -43 39z" />
<glyph unicode="(" horiz-adv-x="573" d="M118 717q0 456 210 889q15 32 50 32h86q25 0 34 -14t-1 -37q-201 -427 -201 -870t201 -870q10 -23 1 -37.5t-34 -14.5h-86q-35 0 -50 32q-210 433 -210 890z" />
<glyph unicode=")" horiz-adv-x="573" d="M74 -190.5q-9 14.5 1 37.5q201 427 201 870t-201 870q-10 23 -1 37t34 14h87q35 0 50 -32q210 -433 210 -889q0 -457 -210 -890q-15 -32 -50 -32h-87q-25 0 -34 14.5z" />
<glyph unicode="*" horiz-adv-x="806" d="M118 1158v49q0 19 11 29t30 9l145 -6l-83 117q-25 34 10 55l44 27q36 22 56 -16l72 -131l73 131q20 38 55 16l44 -26q36 -22 11 -56l-83 -117l145 6q19 1 30 -9t11 -29v-49q0 -19 -11 -29t-30 -9l-145 6l83 -116q24 -33 -11 -55l-44 -28q-35 -22 -55 16l-73 131l-72 -131 q-20 -38 -56 -16l-44 26q-36 22 -10 57l83 116l-145 -6q-19 -1 -30 9t-11 29z" />
<glyph unicode="+" horiz-adv-x="1116" d="M118 675v83q0 44 43 44h312v312q0 43 44 43h83q43 0 43 -43v-312h312q43 0 43 -44v-83q0 -43 -43 -43h-312v-312q0 -44 -43 -44h-83q-44 0 -44 44v312h-312q-43 0 -43 43z" />
<glyph unicode="," d="M138 44v133q0 43 44 43h133q43 0 43 -43v-177q0 -108 -48 -177.5t-138 -89.5q-15 -3 -24.5 5.5t-9.5 23.5v32q0 25 26 36q40 15 60.5 53t20.5 117h-63q-44 0 -44 44z" />
<glyph unicode="-" horiz-adv-x="1054" d="M154 585v85q0 44 43 44h661q43 0 43 -44v-85q0 -43 -43 -43h-661q-43 0 -43 43z" />
<glyph unicode="." d="M138 44v133q0 43 44 43h133q43 0 43 -43v-133q0 -44 -43 -44h-133q-44 0 -44 44z" />
<glyph unicode="/" horiz-adv-x="1081" d="M93 -166l793 1780q11 24 37 24h38q19 0 26 -10t0 -29l-792 -1779q-11 -25 -37 -25h-38q-19 0 -26.5 10.5t-0.5 28.5z" />
<glyph unicode="0" horiz-adv-x="1290" d="M92 717q0 222 63.5 388.5t189.5 260t300 93.5t300 -93.5t189.5 -260t63.5 -388.5t-63.5 -388.5t-189.5 -260.5t-300 -94t-300 94t-189.5 260.5t-63.5 388.5zM282 717q0 -267 94.5 -412.5t268.5 -145.5t269 145.5t95 412.5t-95 412.5t-269 145.5t-268.5 -145.5 t-94.5 -412.5z" />
<glyph unicode="1" horiz-adv-x="727" d="M28 1103v106q0 35 30 52l295 159q22 14 55 14h117q43 0 43 -44v-1346q0 -44 -43 -44h-103q-43 0 -43 44v1190l-299 -161q-22 -13 -37 -4t-15 34z" />
<glyph unicode="2" horiz-adv-x="1081" d="M77 44v81q0 31 22 53l484 489q203 203 203 352q0 122 -72 189t-179 67q-109 0 -182 -53.5t-84 -161.5q-5 -43 -46 -43h-103q-44 0 -41 45q8 98 49 175.5t104 125t139.5 72t160.5 24.5t162.5 -28.5t142 -81.5t101.5 -138.5t38 -191.5q0 -122 -67.5 -237t-185.5 -233 l-369 -366h607q43 0 43 -43v-96q0 -44 -43 -44h-841q-43 0 -43 44z" />
<glyph unicode="3" horiz-adv-x="1095" d="M38 379q-3 45 42 45h104q38 0 44 -42q13 -106 95 -164.5t204 -58.5q134 0 218 70t84 195t-84 195.5t-218 70.5h-75q-44 0 -44 44v51q0 30 18 54l307 416h-594q-43 0 -43 44v91q0 44 43 44h773q44 0 44 -44v-94q0 -30 -18 -54l-293 -398q164 -31 269 -140t105 -280 q0 -141 -70 -245t-180 -154.5t-242 -50.5q-125 0 -230.5 45.5t-176.5 139t-82 220.5z" />
<glyph unicode="4" horiz-adv-x="1177" d="M49 316v105q0 31 12 55l484 927q15 31 52 31h113q25 0 33.5 -15t-2.5 -38l-486 -931h530v362q0 43 43 43h104q43 0 43 -43v-362h131q43 0 43 -44v-90q0 -44 -43 -44h-131v-228q0 -44 -43 -44h-104q-43 0 -43 44v228h-693q-43 0 -43 44z" />
<glyph unicode="5" horiz-adv-x="1132" d="M76 379q-3 45 42 45h105q38 0 44 -42q13 -106 95 -164.5t204 -58.5q134 0 218 70t84 195t-84 195.5t-218 70.5h-377q-46 0 -43 46l49 656q3 42 44 42h718q44 0 44 -44v-91q0 -44 -44 -44h-585l-26 -381h225q132 0 240.5 -50.5t177 -154.5t68.5 -245q0 -106 -40.5 -193 t-108.5 -142t-156 -85t-186 -30q-125 0 -231 45.5t-177 139t-82 220.5z" />
<glyph unicode="6" horiz-adv-x="1101" d="M56 456q0 164 88 287h-1l442 662q20 29 52 29h120q26 0 34 -15.5t-6 -37.5l-303 -448q29 4 68 4q217 0 355.5 -134t138.5 -347t-138.5 -347.5t-355.5 -134.5t-355.5 134.5t-138.5 347.5zM246 456q0 -136 84 -218t220 -82q135 0 220 82.5t85 217.5t-85 217.5t-220 82.5 q-136 0 -220 -82t-84 -218z" />
<glyph unicode="7" horiz-adv-x="1003" d="M36 1297v93q0 44 43 44h809q44 0 44 -44v-98q0 -26 -11 -54l-498 -1205q-12 -33 -50 -33h-108q-24 0 -33 13.5t0 36.5l497 1203h-650q-43 0 -43 44z" />
<glyph unicode="8" horiz-adv-x="1136" d="M77 393q0 114 59.5 205t164.5 144q-82 50 -129.5 130t-47.5 183q0 99 37.5 178t100.5 127.5t141 73.5t165 25t165 -25t141 -73.5t100 -127.5t37 -178q0 -103 -47.5 -183t-128.5 -130q105 -53 164.5 -144t59.5 -205q0 -196 -137.5 -307.5t-353.5 -111.5t-353.5 111.5 t-137.5 307.5zM266 404q0 -120 83 -184t219 -64t218.5 64t82.5 184t-82.5 184.5t-218.5 64.5t-219 -64.5t-83 -184.5zM314 1050q0 -108 73.5 -168.5t180.5 -60.5t180.5 60.5t73.5 168.5q0 113 -72.5 170.5t-181.5 57.5t-181.5 -57.5t-72.5 -170.5z" />
<glyph unicode="9" horiz-adv-x="1101" d="M56 978q0 213 138.5 347t355.5 134t355.5 -134t138.5 -347q0 -167 -87 -288l-441 -662q-19 -28 -53 -28h-119q-26 0 -34 15t6 37l303 448q-22 -3 -69 -3q-217 0 -355.5 134t-138.5 347zM246 978q0 -136 84.5 -218t219.5 -82q136 0 220.5 82t84.5 218t-84.5 218t-220.5 82 q-135 0 -219.5 -82t-84.5 -218z" />
<glyph unicode=":" d="M138 44v133q0 43 44 43h133q43 0 43 -43v-133q0 -44 -43 -44h-133q-44 0 -44 44zM138 847v133q0 44 44 44h133q43 0 43 -44v-133q0 -43 -43 -43h-133q-44 0 -44 43z" />
<glyph unicode=";" d="M138 44v133q0 43 44 43h133q43 0 43 -43v-177q0 -108 -48 -177.5t-138 -89.5q-15 -3 -24.5 5.5t-9.5 23.5v32q0 25 26 36q40 15 60.5 53t20.5 117h-63q-44 0 -44 44zM138 847v133q0 44 44 44h133q43 0 43 -44v-133q0 -43 -43 -43h-133q-44 0 -44 43z" />
<glyph unicode="&#x3c;" horiz-adv-x="1071" d="M113 667v100q0 37 32 52l762 331q23 10 36.5 0.5t13.5 -34.5v-99q0 -36 -33 -50l-609 -250l609 -251q33 -14 33 -49v-100q0 -25 -13.5 -34.5t-36.5 0.5l-762 332q-32 16 -32 52z" />
<glyph unicode="=" horiz-adv-x="1095" d="M113 468v83q0 43 43 43h784q43 0 43 -43v-83q0 -44 -43 -44h-784q-43 0 -43 44zM113 883v83q0 43 43 43h784q43 0 43 -43v-83q0 -44 -43 -44h-784q-43 0 -43 44z" />
<glyph unicode="&#x3e;" horiz-adv-x="1071" d="M113 317v100q0 35 33 49l609 251l-609 250q-33 14 -33 50v99q0 25 13.5 34.5t36.5 -0.5l762 -331q32 -15 32 -52v-100q0 -36 -32 -52l-762 -332q-23 -10 -36.5 -0.5t-13.5 34.5z" />
<glyph unicode="?" horiz-adv-x="1107" d="M79 1078q11 123 79.5 211t169.5 129t222 41q86 0 164.5 -25t140.5 -72t99 -122t37 -167q0 -60 -18.5 -114t-49 -96.5t-67.5 -81.5t-75.5 -76t-72 -73.5t-58 -81t-32.5 -90.5q-8 -40 -45 -40h-105q-46 0 -40 45q7 68 38.5 129.5t72.5 104.5t87.5 88.5t85 83.5t64 89 t25.5 105q0 102 -70.5 156t-183.5 54t-189 -50.5t-89 -149.5q-6 -43 -44 -43h-104q-45 0 -42 46zM409 44v133q0 43 44 43h133q43 0 43 -43v-133q0 -44 -43 -44h-133q-44 0 -44 44z" />
<glyph unicode="@" horiz-adv-x="1615" d="M77 512q0 203 96.5 372.5t268 269t380.5 99.5q133 0 249.5 -40t201 -109t145.5 -158.5t91 -190t30 -202.5q0 -111 -26 -197.5t-69.5 -137.5t-97 -77t-112.5 -26q-92 0 -156 43.5t-87 127.5q-83 -104 -219 -104q-139 0 -230 94.5t-91 235.5t91 235.5t230 94.5 q126 0 207 -90v30q0 43 43 43h71q44 0 44 -43v-409q0 -182 128 -182q90 0 149 89.5t59 272.5q0 179 -86 325.5t-235 230t-330 83.5q-185 0 -340.5 -88t-247 -244.5t-91.5 -347.5q0 -194 92.5 -349.5t256.5 -243t367 -87.5q189 0 323 48q26 8 26 -19v-17q0 -20 -14 -25 q-142 -48 -335 -48q-221 0 -399.5 95t-280.5 264.5t-102 381.5zM609 512q0 -81 54 -132t133 -51q77 0 129.5 51t52.5 132t-52.5 132t-129.5 51q-79 0 -133 -51t-54 -132z" />
<glyph unicode="A" horiz-adv-x="1306" d="M34 50l498 1348q13 36 51 36h140q37 0 50 -36l499 -1348q4 -10 4 -19t-6 -17q-10 -14 -34 -14h-112q-37 0 -49 35l-103 286h-639l-102 -286q-12 -35 -50 -35h-112q-23 0 -33 14q-5 7 -6 17q0 8 4 19zM397 499h511l-255 711z" />
<glyph unicode="B" horiz-adv-x="1402" d="M154 44v1346q0 44 43 44h146h390q171 0 279.5 -104.5t108.5 -258.5q0 -92 -50 -176q121 -56 193 -171t72 -258q0 -195 -129.5 -330.5t-322.5 -135.5h-648h-39q-43 0 -43 44zM343 178h515q131 0 210 84t79 209q0 126 -78 209.5t-209 83.5h-517v-586zM343 937h540 q49 54 49 129q0 82 -53.5 135.5t-145.5 53.5h-390v-318z" />
<glyph unicode="C" horiz-adv-x="1558" d="M77 717q0 153 56 290t154 236.5t238.5 157.5t301.5 58q227 0 409.5 -123.5t254.5 -323.5q3 -9 3 -17q0 -11 -6 -19q-10 -14 -33 -13h-114q-35 0 -51 33q-58 127 -183.5 203t-279.5 76q-164 0 -293 -74t-198.5 -201t-69.5 -283t69.5 -283t198.5 -201t293 -74 q154 0 279.5 76t183.5 203q16 33 51 33h114q23 0 33 -13q6 -8 7 -18q0 -7 -3 -15q-72 -202 -254 -326.5t-411 -124.5q-161 0 -301.5 58.5t-238.5 158t-154 236.5t-56 290z" />
<glyph unicode="D" horiz-adv-x="1511" d="M154 44v1346q0 44 43 44h146h410q194 0 350.5 -96t243.5 -260t87 -361t-87 -361t-243.5 -260t-350.5 -96h-528h-28q-43 0 -43 44zM343 180h410q219 0 358 153.5t139 383.5t-139 383t-358 153h-410v-1073z" />
<glyph unicode="E" horiz-adv-x="1060" d="M154 44v1346q0 44 43 44h146h586q44 0 44 -44v-93q0 -44 -44 -44h-586v-440h535q44 0 44 -44v-91q0 -44 -44 -44h-535v-454h597q43 0 43 -43v-93q0 -44 -43 -44h-715h-28q-43 0 -43 44z" />
<glyph unicode="F" horiz-adv-x="1019" d="M154 44v1346q0 44 43 44h146h586q44 0 44 -44v-93q0 -44 -44 -44h-586v-501h561q43 0 43 -43v-94q0 -43 -43 -43h-561v-528q0 -44 -43 -44h-103q-43 0 -43 44z" />
<glyph unicode="G" horiz-adv-x="1622" d="M77 717q0 153 56 290t153 236.5t235.5 157.5t297.5 58q226 0 408 -121.5t255 -315.5q8 -22 -1.5 -35.5t-33.5 -13.5h-114q-36 0 -52 32q-59 121 -184.5 195.5t-277.5 74.5q-161 0 -288 -74t-196 -201t-69 -283q0 -158 70 -286.5t196.5 -202.5t286.5 -74q133 0 242 44.5 t179 139.5t73 227h-421q-44 0 -44 44v86q0 43 44 43h563q44 0 44 -43v-130v-521q0 -44 -44 -44h-97q-44 0 -44 44v164q-79 -116 -211.5 -175t-293.5 -59q-155 0 -292 58.5t-233 158t-151.5 236.5t-55.5 290z" />
<glyph unicode="H" horiz-adv-x="1296" d="M154 44v1346q0 44 43 44h103q43 0 43 -44v-563h609v563q0 44 44 44h102q44 0 44 -44v-1346q0 -44 -44 -44h-102q-44 0 -44 44v603h-609v-603q0 -44 -43 -44h-103q-43 0 -43 44z" />
<glyph unicode="I" d="M154 44v1346q0 44 43 44h103q43 0 43 -44v-1346q0 -44 -43 -44h-103q-43 0 -43 44z" />
<glyph unicode="J" horiz-adv-x="1091" d="M38 392v6q0 39 41 39h103q41 0 46 -43q11 -121 83.5 -178t185.5 -57q122 0 196.5 63t74.5 190v978q0 44 44 44h102q43 0 43 -44v-978q0 -108 -38 -193.5t-103.5 -138t-146.5 -79.5t-172 -27q-87 0 -165 25t-142 74.5t-104.5 131.5t-47.5 187z" />
<glyph unicode="K" horiz-adv-x="1212" d="M154 44v1346q0 44 43 44h103q43 0 43 -44v-606l577 626q22 24 52 24h131q27 0 35 -17t-10 -37l-585 -644l605 -682q13 -16 13 -29q0 -5 -2 -9q-7 -16 -34 -16h-131q-34 0 -53 24l-598 665v-645q0 -44 -43 -44h-103q-43 0 -43 44z" />
<glyph unicode="L" horiz-adv-x="993" d="M154 44v1346q0 44 43 44h103q43 0 43 -44v-1210h571q43 0 43 -43v-93q0 -44 -43 -44h-658h-59q-43 0 -43 44z" />
<glyph unicode="M" horiz-adv-x="1648" d="M154 44v1346q0 44 43 44h103h46q36 0 50 -33l428 -942l429 942q14 33 50 33h89h60q43 0 43 -44v-1346q0 -44 -43 -44h-103q-43 0 -43 44v1075l-385 -845q-13 -32 -50 -32h-93q-37 0 -50 32l-385 845v-1075q0 -44 -43 -44h-103q-43 0 -43 44z" />
<glyph unicode="N" horiz-adv-x="1300" d="M154 44v1346q0 44 43 44h75q36 0 53 -29l632 -1031v1016q0 44 44 44h102q44 0 44 -44v-1346q0 -44 -44 -44h-75q-37 0 -53 28l-632 1032v-1016q0 -44 -43 -44h-103q-43 0 -43 44z" />
<glyph unicode="O" horiz-adv-x="1638" d="M77 717q0 152 58 289.5t156.5 236.5t236.5 157.5t291 58.5t291 -58.5t237 -157.5t157 -236.5t58 -289.5t-58 -289.5t-157 -237t-237 -158t-291 -58.5t-291 58.5t-236.5 158t-156.5 237t-58 289.5zM266 717q0 -155 72.5 -283t199.5 -201.5t281 -73.5t281 73.5t199.5 201.5 t72.5 283t-72.5 283t-199.5 201.5t-281 73.5t-281 -73.5t-199.5 -201.5t-72.5 -283z" />
<glyph unicode="P" horiz-adv-x="1193" d="M154 44v1346q0 44 43 44h146h330q186 0 317 -130.5t131 -315.5q0 -184 -131 -314.5t-317 -130.5h-330v-499q0 -44 -43 -44h-103q-43 0 -43 44zM343 721h330q107 0 183 78.5t76 188.5q0 111 -75.5 189t-183.5 78h-330v-534z" />
<glyph unicode="Q" horiz-adv-x="1648" d="M77 717q0 152 58.5 289.5t158 236.5t237 157.5t288.5 58.5t288.5 -58.5t237 -157.5t158.5 -236.5t59 -289.5q0 -147 -53.5 -278t-149.5 -233l150 -170q13 -16 13 -30q0 -17 -18 -31l-69 -57q-16 -13 -30 -13q-17 0 -31 19l-150 170q-185 -120 -405 -120q-202 0 -372.5 99 t-270 270t-99.5 374zM266 717q0 -154 74 -282.5t201 -202t278 -73.5q152 0 282 76l-164 185q-13 16 -13 30q0 17 18 31l70 57q16 13 30 13q17 0 31 -19l163 -185q136 157 136 370q0 154 -74 282.5t-201 202t-278 73.5t-278 -73.5t-201 -202t-74 -282.5z" />
<glyph unicode="R" horiz-adv-x="1290" d="M154 44v1346q0 44 43 44h146h333q184 0 314.5 -130.5t130.5 -315.5q0 -140 -83 -254.5t-215 -160.5l447 -519q13 -15 13 -27q-1 -5 -3 -11q-8 -16 -35 -16h-127q-33 0 -54 25l-450 523h-271v-504q0 -44 -43 -44h-103q-43 0 -43 44zM343 721h333q106 0 181 78.5t75 188.5 q0 111 -75 189t-181 78h-333v-534z" />
<glyph unicode="S" horiz-adv-x="1124" d="M74 379v5q0 40 42 40h104q39 0 44 -43q14 -107 98.5 -164.5t218.5 -57.5q125 0 203.5 58t78.5 155q0 40 -17 74.5t-41.5 58.5t-67 48t-79.5 39t-93 36q-169 62 -230 95q-166 87 -210 226q-17 55 -17 122q0 91 37 165.5t99 122.5t141.5 74t165.5 26q118 0 216 -42 t164.5 -130t77.5 -209v-6q0 -40 -42 -40h-104q-39 0 -44 42q-13 97 -85.5 149t-182.5 52q-111 0 -182.5 -55t-71.5 -149q0 -42 15.5 -77t38.5 -60t64 -49t77 -40t92 -37q12 -5 37 -14q46 -17 69.5 -26t67 -27.5t67.5 -32t59.5 -36t56 -42.5t44.5 -49t37 -59.5t21.5 -68.5 t8.5 -81q0 -91 -38.5 -167.5t-103.5 -126t-150 -77t-179 -27.5q-133 0 -242.5 45t-181.5 138t-83 222z" />
<glyph unicode="T" horiz-adv-x="1024" d="M36 1297v93q0 44 43 44h528h338q43 0 43 -44v-93q0 -44 -43 -44h-338v-1209q0 -44 -44 -44h-102q-44 0 -44 44v1209h-338q-43 0 -43 44z" />
<glyph unicode="U" horiz-adv-x="1269" d="M133 430v960q0 44 44 44h102q44 0 44 -44v-953q0 -135 82.5 -206.5t229.5 -71.5t229.5 71.5t82.5 206.5v953q0 44 44 44h102q44 0 44 -44v-960q0 -214 -142.5 -335t-359.5 -121t-359.5 121t-142.5 335z" />
<glyph unicode="V" horiz-adv-x="1261" d="M32 1384q-3 9 -3 16q1 11 7 20q10 14 33 14h112q38 0 50 -36l400 -1170l400 1170q12 36 49 36h112q24 0 34 -14q6 -8 6 -20q0 -8 -3 -16l-478 -1349q-12 -35 -50 -35h-140q-38 0 -50 35z" />
<glyph unicode="W" horiz-adv-x="1781" d="M30 1384q-3 9 -3 17q1 11 7 19q10 14 33 14h101q38 0 48 -38l353 -1179l234 775l-118 392q-7 23 3 36.5t33 13.5h92q37 0 47 -38l353 -1179l353 1179q10 38 47 38h102q23 0 33 -14q6 -8 7 -19q0 -8 -3 -17l-409 -1347q-10 -37 -48 -37h-154q-38 0 -48 37l-202 665 l-202 -665q-10 -37 -48 -37h-155q-38 0 -48 37z" />
<glyph unicode="X" horiz-adv-x="1187" d="M63 15q-3 6 -3 12q0 11 8 25l420 688l-392 641q-13 22 -5 37.5t33 15.5h117q35 0 52 -29l301 -492l301 492q17 29 52 29h116q25 0 33.5 -15.5t-4.5 -37.5l-392 -641l420 -688q8 -14 8 -25q0 -7 -3 -12q-8 -15 -33 -15h-117q-35 0 -52 29l-329 538l-329 -538 q-17 -29 -53 -29h-116q-25 0 -33 15z" />
<glyph unicode="Y" horiz-adv-x="1196" d="M43 1418q8 16 34 16h118q34 0 52 -30l351 -566l351 566q18 30 51 30h118q26 0 34 -16q4 -5 4 -12q0 -11 -9 -25l-455 -725v-612q0 -44 -44 -44h-102q-44 0 -44 44v615l-453 722q-9 14 -9 25q0 7 3 12z" />
<glyph unicode="Z" horiz-adv-x="1075" d="M79 44v92q0 25 16 53l678 1064h-632q-44 0 -44 44v93q0 44 44 44h814q43 0 43 -44v-93q0 -26 -15 -52l-678 -1065h668q43 0 43 -43v-93q0 -44 -43 -44h-850q-44 0 -44 44z" />
<glyph unicode="[" horiz-adv-x="552" d="M118 -161v1756q0 43 43 43h135h213q44 0 44 -43v-85q0 -44 -44 -44h-213v-1499h213q44 0 44 -43v-85q0 -44 -44 -44h-294h-54q-43 0 -43 44z" />
<glyph unicode="\" horiz-adv-x="1081" d="M93 1599q-7 18 0.5 28.5t26.5 10.5h38q26 0 37 -24l792 -1780q7 -19 0 -29t-26 -10h-38q-26 0 -37 25z" />
<glyph unicode="]" horiz-adv-x="552" d="M0 -76q0 43 44 43h213v1499h-213q-44 0 -44 44v85q0 43 44 43h294h54q43 0 43 -43v-1756q0 -44 -43 -44h-135h-213q-44 0 -44 44v85z" />
<glyph unicode="^" horiz-adv-x="1064" d="M108 814q-9 15 4 37l323 552q17 31 52 31h91q35 0 52 -31l323 -552q13 -22 4 -37t-35 -15h-104q-36 0 -53 30l-233 404l-232 -404q-17 -30 -53 -30h-104q-26 0 -35 15z" />
<glyph unicode="_" horiz-adv-x="1064" d="M77 -181q0 44 43 44h825q43 0 43 -44v-85q0 -43 -43 -43h-825q-43 0 -43 43v85z" />
<glyph unicode="`" horiz-adv-x="460" d="M68.5 1420q-6.5 -14 7.5 -33l154 -202q17 -23 47 -23h90q22 0 29.5 13.5t-3.5 32.5l-122 200q-14 26 -45 26h-127q-24 0 -30.5 -14z" />
<glyph unicode="a" horiz-adv-x="1028" d="M77 302q0 79 29.5 143t80.5 103.5t114.5 60t134.5 20.5q199 0 304 -119v145q0 115 -62 170.5t-160 55.5q-83 0 -143 -37.5t-74 -106.5q-13 -41 -46 -41h-90q-43 0 -43 41v5q18 139 127 223.5t269 84.5q175 0 286.5 -104.5t111.5 -285.5v-616q0 -44 -43 -44h-89 q-44 0 -44 44v62q-98 -132 -304 -132q-71 0 -135 21t-114.5 60.5t-80 103.5t-29.5 143zM255 302q0 -80 59 -129t174 -49q110 0 181 50.5t71 127.5q0 81 -69.5 129t-182.5 48q-115 0 -174 -48.5t-59 -128.5z" />
<glyph unicode="b" horiz-adv-x="1296" d="M136 44v1346q0 44 43 44h91q44 0 44 -44v-540q63 94 161.5 147t224.5 53q140 0 259.5 -70.5t189.5 -194.5t70 -273t-70 -273t-189.5 -194.5t-259.5 -70.5q-126 0 -224.5 53t-161.5 147v-130q0 -44 -44 -44h-91q-43 0 -43 44zM314 512q0 -157 104 -262t259 -105t259.5 105 t104.5 262t-104.5 262t-259.5 105t-259 -105t-104 -262z" />
<glyph unicode="c" horiz-adv-x="1169" d="M77 512q0 150 69.5 273.5t193.5 194t276 70.5q166 0 297.5 -88t185.5 -231q4 -10 4 -18q0 -10 -6 -18q-11 -14 -34 -14h-100q-35 0 -53 32q-42 76 -120 119.5t-174 43.5q-153 0 -257 -105t-104 -259t104 -259t257 -105q97 0 175 44t119 119q17 32 53 32h100q23 0 34 -14 q6 -8 6 -18q0 -8 -4 -18q-53 -143 -185 -231t-298 -88q-152 0 -276 70.5t-193.5 194t-69.5 273.5z" />
<glyph unicode="d" horiz-adv-x="1296" d="M77 512q0 149 70 273t189 194.5t259 70.5q126 0 225 -53t162 -147v540q0 44 44 44h91q43 0 43 -44v-1346q0 -44 -43 -44h-91q-44 0 -44 44v130q-63 -94 -162 -147t-225 -53q-140 0 -259 70.5t-189 194.5t-70 273zM255 512q0 -157 104 -262t259 -105t259.5 105t104.5 262 t-104.5 262t-259.5 105t-259 -105t-104 -262z" />
<glyph unicode="e" horiz-adv-x="1169" d="M77 512q0 151 65 273t187 193.5t278 71.5q150 0 266.5 -75.5t176.5 -198t60 -267.5q0 -13 -2 -37q-4 -41 -46 -41h-134h-667q23 -140 117.5 -218t233.5 -78q85 0 152.5 33.5t104.5 88.5q22 28 53 28h98q24 0 35.5 -12.5t2.5 -32.5q-55 -122 -174.5 -194t-274.5 -72 q-237 0 -384.5 152t-147.5 386zM260 587h669q-19 144 -109.5 220t-212.5 76q-141 0 -233.5 -80.5t-113.5 -215.5z" />
<glyph unicode="f" horiz-adv-x="643" d="M31 895v85q0 44 43 44h122v31q0 196 104 302q101 104 292 104h7q21 0 32.5 -12t11.5 -33v-85q0 -42 -46 -42h-7q-107 0 -160 -56q-56 -58 -56 -178v-31h225q44 0 44 -44v-85q0 -43 -44 -43h-225v-808q0 -44 -44 -44h-91q-43 0 -43 44v808h-122q-43 0 -43 43z" />
<glyph unicode="g" horiz-adv-x="1296" d="M77 517q0 146 70 269t189 193.5t259 70.5q127 0 226.5 -53.5t162.5 -148.5v132q0 44 44 44h89q43 0 43 -44v-936q0 -116 -43 -209t-115.5 -151t-164.5 -88.5t-194 -30.5q-119 0 -226.5 42.5t-181 122.5t-87.5 181v5q0 40 44 40h92q36 0 46 -38q21 -75 105 -131t208 -56 q163 0 252 83.5t89 229.5v142q-62 -95 -162 -148t-227 -53q-140 0 -259 70t-189 193t-70 269zM255 517q0 -154 105 -258.5t260 -104.5t259.5 104t104.5 259t-104.5 259.5t-259.5 104.5t-260 -104.5t-105 -259.5z" />
<glyph unicode="h" horiz-adv-x="1071" d="M136 44v1346q0 44 43 44h91q44 0 44 -44v-492q100 152 303 152q147 0 245 -104.5t98 -280.5v-621q0 -44 -44 -44h-91q-43 0 -43 44v614q0 107 -59 165t-154 58q-50 0 -94 -16t-81 -49.5t-58.5 -93t-21.5 -139.5v-539q0 -44 -44 -44h-91q-43 0 -43 44z" />
<glyph unicode="i" horiz-adv-x="450" d="M136 44v936q0 44 43 44h91q44 0 44 -44v-936q0 -44 -44 -44h-91q-43 0 -43 44zM136 1252v138q0 44 43 44h91q44 0 44 -44v-138q0 -44 -44 -44h-91q-43 0 -43 44z" />
<glyph unicode="j" horiz-adv-x="493" d="M-36 -308q0 42 43 44q89 1 131 48.5t42 154.5v1041q0 44 44 44h91q43 0 43 -44v-1041q0 -187 -89 -283q-87 -93 -254 -93h-7q-21 0 -32.5 12t-11.5 32v85zM180 1252v138q0 44 44 44h91q43 0 43 -44v-138q0 -44 -43 -44h-91q-44 0 -44 44z" />
<glyph unicode="k" horiz-adv-x="1028" d="M136 44v1346q0 44 43 44h91q44 0 44 -44v-820l419 430q21 24 52 24h118q29 0 35.5 -16t-13.5 -38l-433 -443l454 -473q15 -15 15 -28q-1 -5 -3 -9q-8 -17 -35 -17h-117q-31 0 -52 24l-440 460v-440q0 -44 -44 -44h-91q-43 0 -43 44z" />
<glyph unicode="l" horiz-adv-x="450" d="M136 44v1387q0 44 43 44h91q44 0 44 -44v-1387q0 -44 -44 -44h-91q-43 0 -43 44z" />
<glyph unicode="m" horiz-adv-x="1572" d="M136 44v936q0 44 43 44h91q44 0 44 -44v-68q95 138 265 138q85 0 154.5 -41.5t110.5 -119.5q103 161 296 161q140 0 231 -94.5t91 -265.5v-646q0 -44 -44 -44h-91q-43 0 -43 44v640q0 100 -50.5 148.5t-128.5 48.5q-38 0 -73.5 -12.5t-69 -40t-54 -80.5t-20.5 -124v-580 q0 -44 -44 -44h-91q-43 0 -43 44v640q0 100 -50.5 148.5t-128.5 48.5q-38 0 -73.5 -12.5t-69 -40t-54 -80.5t-20.5 -124v-580q0 -44 -44 -44h-91q-43 0 -43 44z" />
<glyph unicode="n" horiz-adv-x="1071" d="M136 44v936q0 44 43 44h91q44 0 44 -44v-82q100 152 303 152q147 0 245 -104.5t98 -280.5v-621q0 -44 -44 -44h-91q-43 0 -43 44v614q0 107 -59 165t-154 58q-50 0 -94 -16t-81 -49.5t-58.5 -93t-21.5 -139.5v-539q0 -44 -44 -44h-91q-43 0 -43 44z" />
<glyph unicode="o" horiz-adv-x="1232" d="M77 512q0 149 72 273t195.5 194.5t271.5 70.5t272 -70.5t196 -194.5t72 -273t-72 -273t-196 -194.5t-272 -70.5t-271.5 70.5t-195.5 194.5t-72 273zM255 512q0 -155 104 -260t257 -105t257.5 105t104.5 260t-104.5 260t-257.5 105t-257 -105t-104 -260z" />
<glyph unicode="p" horiz-adv-x="1296" d="M136 -366v1346q0 44 43 44h91q44 0 44 -44v-130q63 94 161.5 147t224.5 53q140 0 259.5 -70.5t189.5 -194.5t70 -273t-70 -273t-189.5 -194.5t-259.5 -70.5q-126 0 -224.5 53t-161.5 147v-540q0 -44 -44 -44h-91q-43 0 -43 44zM314 512q0 -157 104 -262t259 -105 t259.5 105t104.5 262t-104.5 262t-259.5 105t-259 -105t-104 -262z" />
<glyph unicode="q" horiz-adv-x="1296" d="M77 512q0 149 70 273t189 194.5t259 70.5q126 0 225 -53t162 -147v130q0 44 44 44h91q43 0 43 -44v-1346q0 -44 -43 -44h-91q-44 0 -44 44v540q-63 -94 -162 -147t-225 -53q-140 0 -259 70.5t-189 194.5t-70 273zM255 512q0 -157 104 -262t259 -105t259.5 105t104.5 262 t-104.5 262t-259.5 105t-259 -105t-104 -262z" />
<glyph unicode="r" horiz-adv-x="659" d="M136 43v937q0 44 43 44h91q44 0 44 -44v-111q86 153 265 170h6q17 1 27 -9q12 -12 11 -33v-97q0 -43 -30 -43q-57 -3 -105 -21t-88 -53t-63 -95t-23 -140v-505q0 -43 -44 -43h-91q-43 0 -43 43z" />
<glyph unicode="s" horiz-adv-x="956" d="M90 261v6q0 17 10 28q12 12 33 12h90q33 0 46 -40q13 -66 69.5 -97t139.5 -31q94 0 153 35t59 104q0 47 -32.5 78.5t-84 48.5t-114 32t-124.5 36t-113.5 51t-84 86.5t-32.5 135.5q0 136 106.5 220t266.5 84q148 0 249.5 -76.5t117.5 -210.5q2 -22 -9.5 -34t-33.5 -12h-90 q-33 0 -46 41q-12 65 -64.5 96t-123.5 31q-82 0 -138.5 -35.5t-56.5 -103.5q0 -37 20 -64.5t54 -44.5t78 -30t92.5 -25t96.5 -26t92 -36.5t78 -53t54 -78.5t20 -110q0 -137 -109 -220.5t-281 -83.5q-160 0 -266 76t-122 211z" />
<glyph unicode="t" horiz-adv-x="657" d="M38 895v85q0 44 44 44h159v284q0 44 43 44h91q44 0 44 -44v-284h157q44 0 44 -44v-85q0 -43 -44 -43h-157v-808q0 -44 -44 -44h-91q-43 0 -43 44v808h-159q-44 0 -44 43z" />
<glyph unicode="u" horiz-adv-x="1071" d="M111 359v621q0 44 43 44h91q44 0 44 -44v-614q0 -107 58.5 -165t153.5 -58q50 0 94 16t81.5 49.5t59 93t21.5 139.5v539q0 44 43 44h91q44 0 44 -44v-936q0 -44 -44 -44h-91q-43 0 -43 44v82q-100 -152 -303 -152q-147 0 -245 104.5t-98 280.5z" />
<glyph unicode="v" horiz-adv-x="983" d="M34 974q-4 10 -4 19t6 17q10 14 34 14h97q38 0 50 -35l275 -786l274 786q12 35 50 35h98q24 0 34 -14q5 -7 5 -17q0 -9 -4 -19l-345 -939q-13 -35 -50 -35h-81h-44q-36 0 -50 35z" />
<glyph unicode="w" horiz-adv-x="1423" d="M37 974q-3 9 -3 17q0 11 6 19q10 14 33 14h100q37 0 48 -35l247 -782l165 491l-94 276q-7 23 2.5 36.5t32.5 13.5h85q36 0 48 -35l252 -771l244 771q11 35 48 35h100q23 0 33 -14q6 -8 6 -18q0 -8 -4 -18l-320 -939q-12 -35 -50 -35h-75h-32q-38 0 -50 35l-146 429 l-148 -429q-12 -35 -50 -35h-65h-43q-38 0 -50 35z" />
<glyph unicode="x" horiz-adv-x="942" d="M60 15q-3 6 -4 12q0 11 9 25l308 478l-285 442q-14 22 -5.5 37t34.5 15h94q33 0 53 -29l204 -317l205 317q20 29 53 29h94q26 0 34.5 -15t-5.5 -37l-285 -442l308 -478q9 -14 9 -25q1 -7 -3 -12q-8 -15 -35 -15h-94q-33 0 -53 29l-228 353l-227 -353q-20 -29 -53 -29h-94 q-26 0 -34 15z" />
<glyph unicode="y" horiz-adv-x="983" d="M36 974q-4 11 -4 20t4 16q10 14 34 14h98q38 0 50 -33l294 -733l254 731q12 35 50 35h99q24 0 34 -14q6 -7 6 -17q0 -9 -4 -19l-472 -1349q-12 -35 -50 -35h-100q-24 0 -33.5 13.5t-1.5 36.5l129 370z" />
<glyph unicode="z" horiz-adv-x="923" d="M77 44v45q0 28 17 54l507 711h-460q-44 0 -44 44v82q0 44 44 44h660q44 0 44 -44v-45q0 -26 -18 -54l-506 -711h501q43 0 43 -44v-82q0 -44 -43 -44h-702q-43 0 -43 44z" />
<glyph unicode="{" horiz-adv-x="722" d="M102 677v84q0 42 44 44q78 4 115 41.5t37 135.5v329q0 177 88 265.5t258 84.5q43 0 43 -44v-85q0 -42 -45 -43q-86 3 -126 -37t-40 -141v-329q0 -110 -37 -172.5t-110 -90.5q74 -28 110.5 -90.5t36.5 -171.5v-330q0 -101 40 -141t126 -37q45 -1 45 -43v-85q0 -44 -43 -44 q-170 -4 -258 84.5t-88 265.5v330q0 98 -36.5 135t-115.5 41q-44 2 -44 44z" />
<glyph unicode="|" horiz-adv-x="485" d="M154 -366v1797q0 44 43 44h91q44 0 44 -44v-1797q0 -44 -44 -44h-91q-43 0 -43 44z" />
<glyph unicode="}" horiz-adv-x="722" d="M36 -94q0 42 45 43q86 -3 126 37t40 141v330q0 109 36.5 171.5t110.5 90.5q-73 28 -110 90.5t-37 172.5v329q0 101 -40 141t-126 37q-45 1 -45 43v85q0 44 43 44q170 4 258 -84.5t88 -265.5v-329q0 -98 37 -135.5t115 -41.5q44 -2 44 -44v-84q0 -42 -44 -44 q-79 -4 -115.5 -41t-36.5 -135v-330q0 -177 -88 -265.5t-258 -84.5q-43 0 -43 44v85z" />
<glyph unicode="~" horiz-adv-x="1220" d="M125 676q60 158 189.5 193t312.5 -67q142 -78 208.5 -70.5t101.5 93.5q17 43 57 23l76 -36q38 -17 24 -57q-60 -158 -188 -193t-314 68q-140 77 -207 69.5t-103 -92.5q-18 -42 -57 -23l-75 36q-38 18 -25 56z" />
<glyph unicode="&#xa1;" d="M138 847v133q0 44 44 44h133q43 0 43 -44v-133q0 -43 -43 -43h-133q-44 0 -44 43zM141 0l35 571q2 33 37 33h71q36 0 37 -33l35 -571v-366q0 -44 -44 -44h-128q-43 0 -43 44v366z" />
<glyph unicode="&#xa2;" horiz-adv-x="1169" d="M77 717q0 150 69.5 273t193 193.5t276.5 70.5q51 0 93 -7l52 160q9 27 37 27h40q36 0 26 -37l-57 -176q101 -38 178 -112.5t114 -173.5q9 -22 -2 -35.5t-34 -13.5h-100q-35 0 -53 32q-51 94 -156 136l-224 -691q45 -10 86 -10q97 0 175 44t119 119q17 32 53 32h100 q23 0 34 -14t2 -36q-53 -143 -185 -231t-298 -88q-71 0 -139 17l-55 -169q-9 -27 -37 -27h-40q-17 0 -24.5 10t-2.5 27l63 193q-140 65 -222 194.5t-82 292.5zM255 717q0 -103 49 -186.5t132 -130.5l219 678q-26 2 -39 2q-153 0 -257 -104.5t-104 -258.5z" />
<glyph unicode="&#xa3;" horiz-adv-x="1198" d="M77 44v96q0 43 43 43h135v373h-99q-43 0 -43 44v79q0 44 43 44h99v299q0 108 37 193.5t99 137.5t137.5 79t156.5 27q62 0 122.5 -16.5t116.5 -52t98 -85.5t67.5 -123.5t25.5 -159.5v-16q0 -43 -43 -43h-103q-43 0 -43 43v16q0 124 -71.5 188.5t-169.5 64.5 q-102 0 -171.5 -64t-69.5 -189v-299h401q43 0 43 -44v-79q0 -44 -43 -44h-401v-373h680q43 0 43 -43v-96q0 -44 -43 -44h-1004q-43 0 -43 44z" />
<glyph unicode="&#xa4;" horiz-adv-x="1124" d="M101 277q-24 24 0 48l119 119q-95 117 -95 273q0 155 95 272l-119 119q-25 24 0 49l21 21q24 24 48 0l121 -119q118 91 271 91q155 0 272 -92l120 120q24 24 48 0l21 -21q25 -25 0 -49l-118 -119q94 -118 94 -272q0 -155 -94 -273l118 -119q24 -24 0 -48l-21 -22 q-25 -25 -48 0l-120 120q-116 -91 -272 -91q-153 0 -271 91l-121 -120q-24 -24 -48 0zM302 717q0 -111 74.5 -186.5t185.5 -75.5t185.5 75.5t74.5 186.5t-74.5 186.5t-185.5 75.5t-185.5 -75.5t-74.5 -186.5z" />
<glyph unicode="&#xa5;" horiz-adv-x="1196" d="M43 1418.5q8 15.5 34 15.5h118q34 0 52 -30l351 -566l351 566q18 30 51 30h118q26 0 34.5 -15.5t-5.5 -37.5l-415 -660h275q42 0 42 -42v-50q0 -42 -42 -42h-315v-113h315q42 0 42 -42v-50q0 -42 -42 -42h-315v-296q0 -44 -44 -44h-102q-44 0 -44 44v296h-312 q-42 0 -42 42v50q0 42 42 42h312v113h-312q-42 0 -42 42v50q0 42 42 42h273l-414 660q-14 22 -6 37.5z" />
<glyph unicode="&#xa6;" horiz-adv-x="485" d="M154 305q0 43 43 43h91q44 0 44 -43v-671q0 -44 -44 -44h-91q-43 0 -43 44v671zM154 760v671q0 44 43 44h91q44 0 44 -44v-671q0 -43 -44 -43h-91q-43 0 -43 43z" />
<glyph unicode="&#xa7;" horiz-adv-x="1069" d="M97 685q0 79 38 145.5t105 113.5q-80 85 -80 209q0 137 104 221.5t263 84.5q150 0 254.5 -81t119.5 -227q2 -21 -9.5 -33t-33.5 -12h-90q-37 0 -45 42q-12 77 -67 111.5t-129 34.5q-81 0 -135 -35.5t-54 -105.5q0 -50 44.5 -95t87.5 -68t140 -67l39 -18q57 -27 96 -48 t85 -54.5t74.5 -67.5t47.5 -82t19 -103q0 -156 -134 -259q87 -87 87 -212q0 -139 -106 -223.5t-277 -84.5q-164 0 -273 80t-124 227q-2 21 9.5 33t33.5 12h90q37 0 45 -41q13 -78 72.5 -112.5t146.5 -34.5q93 0 148.5 36.5t55.5 107.5q0 25 -8.5 47t-29 42t-39.5 35.5 t-55 34t-59.5 30t-69 32t-68.5 31.5q-55 26 -95.5 47.5t-85.5 55t-73 68t-46.5 82t-18.5 101.5zM275 690q0 -69 55.5 -117t158.5 -94q17 -7 67 -27.5t85.5 -36.5t67.5 -33q84 64 84 158q0 38 -16.5 70t-50.5 58.5t-69 46t-88 42.5q-158 68 -205 94q-89 -64 -89 -161z" />
<glyph unicode="&#xa8;" horiz-adv-x="671" d="M41 1213v114q0 37 38 37h114q37 0 37 -37v-114q0 -38 -37 -38h-114q-38 0 -38 38zM440 1213v114q0 37 38 37h114q38 0 38 -37v-114q0 -38 -38 -38h-114q-38 0 -38 38z" />
<glyph unicode="&#xa9;" horiz-adv-x="1636" d="M77 717q0 151 58.5 288.5t157.5 236.5t236.5 157.5t288.5 58.5q202 0 372.5 -99t270 -269.5t99.5 -372.5t-99.5 -372.5t-270 -270t-372.5 -99.5t-372.5 99.5t-269.5 270t-99 372.5zM143 717q0 -185 90.5 -341.5t246 -247.5t338.5 -91t338.5 91t246 247.5t90.5 341.5 t-90.5 341.5t-246 247.5t-338.5 91t-338.5 -91t-246 -247.5t-90.5 -341.5zM424 717q0 165 116.5 280.5t283.5 115.5q126 0 226.5 -69t140.5 -183q7 -22 -3 -35.5t-34 -13.5h-87q-32 0 -50 33q-25 51 -78 79t-116 28q-105 0 -169.5 -70t-64.5 -165t64.5 -165.5t169.5 -70.5 q63 0 116 28.5t78 79.5q18 33 50 33h87q23 0 33.5 -13t3.5 -35q-39 -114 -139.5 -183.5t-227.5 -69.5q-167 0 -283.5 115.5t-116.5 280.5z" />
<glyph unicode="&#xaa;" horiz-adv-x="569" d="M56 1086q0 74 51 118.5t122 44.5q95 0 150 -55v69q0 41 -24.5 64t-69.5 23q-73 0 -89 -43q-11 -23 -30 -23h-61q-28 0 -25 27q10 69 65 108.5t140 39.5q93 0 150 -52t57 -141v-305q0 -12 -7.5 -19.5t-19.5 -7.5h-59q-12 0 -19.5 7.5t-7.5 19.5v21q-51 -60 -150 -60 q-71 0 -122 45t-51 119zM170 1086q0 -32 25 -52.5t68 -20.5q42 0 79 19t37 54q0 36 -36.5 53.5t-79.5 17.5t-68 -20t-25 -51z" />
<glyph unicode="&#xab;" horiz-adv-x="1044" d="M156 603q-20 30 0 60l190 315q17 29 52 29h98q26 0 34 -15t-5 -38l-193 -321l193 -322q13 -23 5 -37.5t-34 -14.5h-98q-35 0 -52 29zM504 603q-20 30 0 60l190 315q17 29 52 29h98q26 0 34 -15t-5 -38l-193 -321l193 -322q13 -23 5 -37.5t-34 -14.5h-98q-35 0 -52 29z " />
<glyph unicode="&#xac;" horiz-adv-x="1085" d="M113 675v83q0 44 43 44h773q44 0 44 -44v-126v-196q0 -44 -44 -44h-91q-43 0 -43 44v196h-639q-43 0 -43 43z" />
<glyph unicode="&#xad;" horiz-adv-x="1054" d="M154 585v85q0 44 43 44h661q43 0 43 -44v-85q0 -43 -43 -43h-661q-43 0 -43 43z" />
<glyph unicode="&#xae;" horiz-adv-x="1636" d="M77 717q0 151 58.5 288.5t157.5 236.5t236.5 157.5t288.5 58.5q202 0 372.5 -99t270 -269.5t99.5 -372.5t-99.5 -372.5t-270 -270t-372.5 -99.5t-372.5 99.5t-269.5 270t-99 372.5zM143 717q0 -185 90.5 -341.5t246 -247.5t338.5 -91t338.5 91t246 247.5t90.5 341.5 t-90.5 341.5t-246 247.5t-338.5 91t-338.5 -91t-246 -247.5t-90.5 -341.5zM575 381v671q0 44 43 44h115h106q131 0 209 -72t78 -177q0 -79 -35 -138t-100 -90l172 -228q16 -22 8 -37.5t-35 -15.5h-77q-32 0 -52 26l-170 224h-104v-207q0 -43 -44 -43h-71q-43 0 -43 43z M733 731h99q65 0 100.5 29t35.5 79q0 51 -35.5 79.5t-100.5 28.5h-99v-216z" />
<glyph unicode="&#xaf;" horiz-adv-x="634" d="M41 1215v75q0 38 38 38h477q38 0 38 -38v-75q0 -38 -38 -38h-477q-38 0 -38 38z" />
<glyph unicode="&#xb0;" horiz-adv-x="800" d="M77 1341q0 133 92.5 225.5t230.5 92.5t231 -92.5t93 -225.5t-91.5 -225t-232.5 -92q-138 0 -230.5 92t-92.5 225zM239 1341q0 -70 45 -116.5t116 -46.5q72 0 117 46.5t45 116.5t-45.5 117t-116.5 47t-116 -47t-45 -117z" />
<glyph unicode="&#xb1;" horiz-adv-x="1116" d="M118 202v83q0 44 43 44h794q43 0 43 -44v-83q0 -43 -43 -43h-794q-43 0 -43 43zM118 826v83q0 44 43 44h312v278q0 44 44 44h83q43 0 43 -44v-278h312q43 0 43 -44v-83q0 -43 -43 -43h-312v-279q0 -43 -43 -43h-83q-44 0 -44 43v279h-312q-43 0 -43 43z" />
<glyph unicode="&#xb4;" horiz-adv-x="460" d="M66 1176q8 -14 31 -14h85q31 0 49 24l151 198q15 20 8 35t-32 15h-121q-33 0 -48 -28l-119 -195q-12 -21 -4 -35z" />
<glyph unicode="&#xb5;" horiz-adv-x="1167" d="M136 -366v1346q0 44 43 44h91q44 0 44 -44v-614q0 -107 58.5 -165t153.5 -58q50 0 94 16t81.5 49.5t59 93t21.5 139.5v539q0 44 43 44h91q44 0 44 -44v-739q0 -42 25 -56.5t81 -14.5q44 0 44 -44v-82q0 -44 -43 -44h-62q-72 0 -125 32.5t-78 91.5q-99 -150 -299 -150 q-108 0 -189 59v-399q0 -44 -44 -44h-91q-43 0 -43 44z" />
<glyph unicode="&#xb6;" horiz-adv-x="1249" d="M72 1014q0 175 122.5 297.5t297.5 122.5h170h376h81q43 0 43 -44v-75q0 -43 -43 -43h-81v-1638q0 -44 -43 -44h-83q-44 0 -44 44v1638h-206v-1638q0 -44 -44 -44h-83q-43 0 -43 44v960q-174 0 -297 123t-123 297z" />
<glyph unicode="&#xb7;" d="M138 648v133q0 43 44 43h133q43 0 43 -43v-133q0 -44 -43 -44h-133q-44 0 -44 44z" />
<glyph unicode="&#xb8;" horiz-adv-x="512" d="M41 -346q0 38 42 38q114 -7 173 10.5t59 53.5q0 58 -132 71q-38 5 -38 40v133h151v-93q79 -15 127 -57.5t48 -106.5q0 -201 -390 -187q-40 3 -40 40v58z" />
<glyph unicode="&#xba;" horiz-adv-x="653" d="M56 1190q0 114 78 191.5t193 77.5t192 -77.5t77 -191.5t-77 -191t-192 -77t-193 77t-78 191zM172 1190q0 -71 43 -114t112 -43t111.5 43t42.5 114t-42.5 114.5t-111.5 43.5t-112 -43.5t-43 -114.5z" />
<glyph unicode="&#xbb;" horiz-adv-x="1044" d="M165 273.5q-8 14.5 5 37.5l194 322l-194 321q-13 23 -5 38t34 15h98q35 0 52 -29l191 -315q20 -30 0 -60l-191 -315q-17 -29 -52 -29h-98q-26 0 -34 14.5zM513 273.5q-8 14.5 5 37.5l194 322l-194 321q-13 23 -5 38t34 15h98q35 0 52 -29l191 -315q20 -30 0 -60 l-191 -315q-17 -29 -52 -29h-98q-26 0 -34 14.5z" />
<glyph unicode="&#xbc;" horiz-adv-x="1677" d="M36 1206v81q0 31 27 48l161 87q21 12 48 12h94q38 0 38 -39v-742q0 -39 -38 -39h-80q-39 0 -39 39v614l-165 -89q-20 -11 -33 -3t-13 31zM280 15q-9 15 4 37l771 1351q15 31 52 31h49q25 0 34 -15.5t-4 -37.5l-772 -1351q-15 -30 -52 -30h-48q-25 0 -34 15zM978 185v82 q0 27 12 48l264 477q14 27 47 27h85q22 0 30.5 -13.5t-2.5 -32.5l-263 -481h235v140q0 39 39 39h77q39 0 39 -39v-140h58q39 0 39 -39v-68q0 -39 -39 -39h-58v-107q0 -39 -39 -39h-77q-39 0 -39 39v107h-369q-39 0 -39 39z" />
<glyph unicode="&#xbd;" horiz-adv-x="1656" d="M36 1206v81q0 31 27 48l161 87q21 12 48 12h94q38 0 38 -39v-742q0 -39 -38 -39h-80q-39 0 -39 39v614l-165 -89q-20 -11 -33 -3t-13 31zM280 15q-9 15 4 37l771 1351q15 31 52 31h49q25 0 34 -15.5t-4 -37.5l-772 -1351q-15 -30 -52 -30h-48q-25 0 -34 15zM1011 39v51 q0 26 21 47l311 293q81 75 81 158q0 49 -33 78.5t-91 29.5q-52 0 -85.5 -22.5t-42.5 -62.5q-13 -36 -41 -36h-83q-19 0 -29 10.5t-8 30.5q13 107 92 168t197 61q126 0 204.5 -71.5t78.5 -184.5q0 -134 -131 -255l-206 -186h313q39 0 39 -38v-71q0 -39 -39 -39h-509 q-39 0 -39 39z" />
<glyph unicode="&#xbe;" horiz-adv-x="1875" d="M46 816q-2 20 8.5 30.5t29.5 10.5h82q28 0 42 -35q9 -41 45.5 -64t95.5 -23q71 0 109 33t38 89q0 55 -39.5 88t-107.5 33h-50q-39 0 -39 39v40q0 27 18 48l151 180h-312q-39 0 -39 39v71q0 39 39 39h462q39 0 39 -39v-70q0 -26 -18 -48l-152 -183q97 -22 151.5 -84.5 t54.5 -152.5q0 -123 -83 -195.5t-222 -72.5q-127 0 -208 61t-95 166zM478 15q-9 15 4 37l771 1351q15 31 53 31h48q25 0 34 -15.5t-4 -37.5l-772 -1351q-15 -30 -52 -30h-48q-25 0 -34 15zM1176 185v82q0 27 12 48l264 477q14 27 47 27h86q22 0 30 -13.5t-3 -32.5l-262 -481 h235v140q0 39 39 39h76q39 0 39 -39v-140h59q39 0 39 -39v-68q0 -39 -39 -39h-59v-107q0 -39 -39 -39h-76q-39 0 -39 39v107h-370q-39 0 -39 39z" />
<glyph unicode="&#xbf;" horiz-adv-x="1103" d="M113 -49q0 60 18.5 114t48.5 96.5t67 81.5t75.5 76t72 73.5t58 81t32.5 90.5q8 40 45 40h105q47 0 41 -45q-6 -59 -30.5 -112.5t-58 -94t-72 -78.5t-76.5 -73.5t-68.5 -71.5t-49.5 -79.5t-19 -90.5q0 -102 71 -156t184 -54t188.5 50.5t88.5 149.5q6 43 45 43h104 q45 0 42 -46q-8 -93 -49.5 -166.5t-106.5 -120t-145.5 -70.5t-170.5 -24q-86 0 -164.5 25t-140.5 72t-98.5 122t-36.5 167zM474 847v133q0 44 44 44h133q43 0 43 -44v-133q0 -43 -43 -43h-133q-44 0 -44 43z" />
<glyph unicode="&#xc0;" horiz-adv-x="1306" d="M34 50l498 1348q13 36 51 36h140q37 0 50 -36l499 -1348q8 -23 -2 -36.5t-34 -13.5h-112q-37 0 -49 35l-103 286h-639l-102 -286q-12 -35 -50 -35h-112q-24 0 -33.5 13.5t-1.5 36.5zM397 499h511l-255 711zM408.5 1829.5q6.5 13.5 30.5 13.5h128q31 0 44 -25l122 -200 q11 -19 4 -32.5t-29 -13.5h-91q-30 0 -46 22l-155 203q-14 19 -7.5 32.5z" />
<glyph unicode="&#xc1;" horiz-adv-x="1306" d="M34 50l498 1348q13 36 51 36h140q37 0 50 -36l499 -1348q8 -23 -2 -36.5t-34 -13.5h-112q-37 0 -49 35l-103 286h-639l-102 -286q-12 -35 -50 -35h-112q-24 0 -33.5 13.5t-1.5 36.5zM397 499h511l-255 711zM555 1586q-8 14 4 35l119 195q15 27 48 27h121q25 0 32 -14.5 t-8 -34.5l-151 -198q-18 -24 -49 -24h-85q-23 0 -31 14z" />
<glyph unicode="&#xc2;" horiz-adv-x="1306" d="M34 50l498 1348q13 36 51 36h140q37 0 50 -36l499 -1348q8 -23 -2 -36.5t-34 -13.5h-112q-37 0 -49 35l-103 286h-639l-102 -286q-12 -35 -50 -35h-112q-24 0 -33.5 13.5t-1.5 36.5zM364.5 1580.5q-6.5 13.5 7.5 32.5l162 208q16 22 46 22h97h43q30 0 46 -22l163 -208 q14 -19 7.5 -32.5t-29.5 -13.5h-102q-30 0 -46 23l-109 143l-109 -143q-16 -23 -46 -23h-101q-23 0 -29.5 13.5zM397 499h511l-255 711z" />
<glyph unicode="&#xc3;" horiz-adv-x="1306" d="M34 50l498 1348q13 36 51 36h140q37 0 50 -36l499 -1348q8 -23 -2 -36.5t-34 -13.5h-112q-37 0 -49 35l-103 286h-639l-102 -286q-12 -35 -50 -35h-112q-24 0 -33.5 13.5t-1.5 36.5zM348 1624q7 115 56 170t117 49.5t142 -58.5q37 -27 59.5 -40.5t42 -16.5t29.5 13.5 t13 52.5q4 39 39 39h76q38 0 35 -40q-5 -87 -34.5 -140.5t-73.5 -69.5t-97 -3.5t-108 51.5q-37 27 -59.5 40.5t-43 16.5t-30.5 -13t-13 -52q-4 -39 -39 -39h-76q-38 0 -35 40zM397 499h511l-255 711z" />
<glyph unicode="&#xc4;" horiz-adv-x="1306" d="M34 50l498 1348q13 36 51 36h140q37 0 50 -36l499 -1348q8 -23 -2 -36.5t-34 -13.5h-112q-37 0 -49 35l-103 286h-639l-102 -286q-12 -35 -50 -35h-112q-24 0 -33.5 13.5t-1.5 36.5zM358 1623v113q0 38 38 38h114q38 0 38 -38v-113q0 -38 -38 -38h-114q-38 0 -38 38z M397 499h511l-255 711zM758 1623v113q0 38 38 38h113q38 0 38 -38v-113q0 -38 -38 -38h-113q-38 0 -38 38z" />
<glyph unicode="&#xc5;" horiz-adv-x="1306" d="M34 50l498 1348q13 36 51 36h140q37 0 50 -36l499 -1348q8 -23 -2 -36.5t-34 -13.5h-112q-37 0 -49 35l-103 286h-639l-102 -286q-12 -35 -50 -35h-112q-24 0 -33.5 13.5t-1.5 36.5zM397 499h511l-255 711zM422 1746q0 94 64.5 156t166.5 62q103 0 167 -62t64 -156 t-64 -156t-167 -62q-102 0 -166.5 62t-64.5 156zM557 1746q0 -41 25.5 -67t70.5 -26q47 0 72.5 26t25.5 67t-25.5 67t-72.5 26q-45 0 -70.5 -26t-25.5 -67z" />
<glyph unicode="&#xc6;" horiz-adv-x="1802" d="M27 14.5q-8 14.5 5 37.5l819 1353q17 29 52 29h90h115h564q43 0 43 -44v-93q0 -44 -43 -44h-564v-440h528q43 0 43 -44v-91q0 -44 -43 -44h-528v-454h574q43 0 43 -43v-93q0 -44 -43 -44h-673h-44q-43 0 -43 44v277h-514l-176 -292q-16 -29 -52 -29h-119q-26 0 -34 14.5z M516 499h406v673z" />
<glyph unicode="&#xc7;" horiz-adv-x="1558" d="M77 717q0 153 56 290t154 236.5t238.5 157.5t301.5 58q227 0 409.5 -123.5t254.5 -323.5q7 -22 -3 -35.5t-33 -13.5h-114q-35 0 -51 33q-58 127 -183.5 203t-279.5 76q-164 0 -293 -74t-198.5 -201t-69.5 -283t69.5 -283t198.5 -201t293 -74q154 0 279.5 76t183.5 203 q16 33 51 33h114q23 0 33.5 -13t3.5 -33q-65 -184 -224.5 -305t-364.5 -142v-71q79 -15 127 -57t48 -106q0 -202 -390 -188q-40 3 -40 40v58q0 38 42 38q114 -7 173 10.5t59 53.5q0 58 -132 71q-38 5 -38 40v111q-196 17 -350.5 119t-239.5 264.5t-85 355.5z" />
<glyph unicode="&#xc8;" horiz-adv-x="1060" d="M154 44v1346q0 44 43 44h146h586q44 0 44 -44v-93q0 -44 -44 -44h-586v-440h535q44 0 44 -44v-91q0 -44 -44 -44h-535v-454h597q43 0 43 -43v-93q0 -44 -43 -44h-715h-28q-43 0 -43 44zM320.5 1829.5q6.5 13.5 30.5 13.5h127q32 0 45 -25l122 -200q11 -19 3.5 -32.5 t-29.5 -13.5h-90q-31 0 -47 22l-154 203q-14 19 -7.5 32.5z" />
<glyph unicode="&#xc9;" horiz-adv-x="1060" d="M154 44v1346q0 44 43 44h146h586q44 0 44 -44v-93q0 -44 -44 -44h-586v-440h535q44 0 44 -44v-91q0 -44 -44 -44h-535v-454h597q43 0 43 -43v-93q0 -44 -43 -44h-715h-28q-43 0 -43 44zM466 1586q-8 14 4 35l119 195q15 27 48 27h121q25 0 32.5 -14.5t-7.5 -34.5 l-151 -198q-18 -24 -50 -24h-85q-23 0 -31 14z" />
<glyph unicode="&#xca;" horiz-adv-x="1060" d="M154 44v1346q0 44 43 44h146h586q44 0 44 -44v-93q0 -44 -44 -44h-586v-440h535q44 0 44 -44v-91q0 -44 -44 -44h-535v-454h597q43 0 43 -43v-93q0 -44 -43 -44h-715h-28q-43 0 -43 44zM275.5 1580.5q-6.5 13.5 7.5 32.5l162 208q16 22 47 22h96h44q30 0 46 -22l162 -208 q14 -19 7.5 -32.5t-29.5 -13.5h-101q-30 0 -46 23l-109 143l-109 -143q-16 -23 -46 -23h-102q-23 0 -29.5 13.5z" />
<glyph unicode="&#xcb;" horiz-adv-x="1060" d="M154 44v1346q0 44 43 44h146h586q44 0 44 -44v-93q0 -44 -44 -44h-586v-440h535q44 0 44 -44v-91q0 -44 -44 -44h-535v-454h597q43 0 43 -43v-93q0 -44 -43 -44h-715h-28q-43 0 -43 44zM270 1623v113q0 38 38 38h113q38 0 38 -38v-113q0 -38 -38 -38h-113q-38 0 -38 38z M669 1623v113q0 38 38 38h114q38 0 38 -38v-113q0 -38 -38 -38h-114q-38 0 -38 38z" />
<glyph unicode="&#xcc;" d="M4.5 1829.5q-6.5 -13.5 7.5 -32.5l154 -203q16 -22 47 -22h90q22 0 29.5 13.5t-3.5 32.5l-122 200q-13 25 -45 25h-127q-24 0 -30.5 -13.5zM154 44v1346q0 44 43 44h103q43 0 43 -44v-1346q0 -44 -43 -44h-103q-43 0 -43 44z" />
<glyph unicode="&#xcd;" d="M150 1586q8 -14 31 -14h85q32 0 50 24l151 198q15 20 7.5 34.5t-32.5 14.5h-121q-33 0 -48 -27l-119 -195q-12 -21 -4 -35zM154 44v1346q0 44 43 44h103q43 0 43 -44v-1346q0 -44 -43 -44h-103q-43 0 -43 44z" />
<glyph unicode="&#xce;" d="M-40.5 1580.5q-6.5 13.5 7.5 32.5l163 208q16 22 46 22h96h44q30 0 46 -22l162 -208q14 -19 7.5 -32.5t-29.5 -13.5h-101q-30 0 -46 23l-109 143l-109 -143q-16 -23 -46 -23h-102q-23 0 -29.5 13.5zM154 44v1346q0 44 43 44h103q43 0 43 -44v-1346q0 -44 -43 -44h-103 q-43 0 -43 44z" />
<glyph unicode="&#xcf;" d="M-46 1623v113q0 38 38 38h113q38 0 38 -38v-113q0 -38 -38 -38h-113q-38 0 -38 38zM154 44v1346q0 44 43 44h103q43 0 43 -44v-1346q0 -44 -43 -44h-103q-43 0 -43 44zM353 1623v113q0 38 38 38h114q38 0 38 -38v-113q0 -38 -38 -38h-114q-38 0 -38 38z" />
<glyph unicode="&#xd0;" horiz-adv-x="1562" d="M56 669v85q0 44 44 44h105v592q0 44 43 44h146h410q194 0 350.5 -96t243.5 -260t87 -361t-87 -361t-243.5 -260t-350.5 -96h-528h-28q-43 0 -43 44v582h-105q-44 0 -44 43zM394 180h410q219 0 358.5 153.5t139.5 383.5t-139.5 383t-358.5 153h-410v-455h366q44 0 44 -44 v-85q0 -43 -44 -43h-366v-446z" />
<glyph unicode="&#xd1;" horiz-adv-x="1300" d="M154 44v1346q0 44 43 44h75q36 0 53 -29l632 -1031v1016q0 44 44 44h102q44 0 44 -44v-1346q0 -44 -44 -44h-75q-37 0 -53 28l-632 1032v-1016q0 -44 -43 -44h-103q-43 0 -43 44zM345 1624q7 115 56 170t117 49.5t142 -58.5q37 -27 59.5 -40.5t42 -16.5t29.5 13.5 t13 52.5q4 39 40 39h75q39 0 36 -40q-5 -87 -34.5 -140.5t-73.5 -69.5t-97 -3.5t-108 51.5q-37 27 -59.5 40.5t-43 16.5t-30.5 -13t-13 -52q-4 -39 -40 -39h-75q-39 0 -36 40z" />
<glyph unicode="&#xd2;" horiz-adv-x="1638" d="M77 717q0 152 58 289.5t156.5 236.5t236.5 157.5t291 58.5t291 -58.5t237 -157.5t157 -236.5t58 -289.5t-58 -289.5t-157 -237t-237 -158t-291 -58.5t-291 58.5t-236.5 158t-156.5 237t-58 289.5zM266 717q0 -155 72.5 -283t199.5 -201.5t281 -73.5t281 73.5t199.5 201.5 t72.5 283t-72.5 283t-199.5 201.5t-281 73.5t-281 -73.5t-199.5 -201.5t-72.5 -283zM575.5 1835q-6.5 -13 7.5 -33l154 -203q16 -22 47 -22h90q22 0 29.5 13.5t-3.5 32.5l-122 200q-13 25 -45 25h-127q-24 0 -30.5 -13z" />
<glyph unicode="&#xd3;" horiz-adv-x="1638" d="M77 717q0 152 58 289.5t156.5 236.5t236.5 157.5t291 58.5t291 -58.5t237 -157.5t157 -236.5t58 -289.5t-58 -289.5t-157 -237t-237 -158t-291 -58.5t-291 58.5t-236.5 158t-156.5 237t-58 289.5zM266 717q0 -155 72.5 -283t199.5 -201.5t281 -73.5t281 73.5t199.5 201.5 t72.5 283t-72.5 283t-199.5 201.5t-281 73.5t-281 -73.5t-199.5 -201.5t-72.5 -283zM721 1591q8 -14 31 -14h85q32 0 50 24l151 198q15 20 7.5 34.5t-32.5 14.5h-121q-33 0 -48 -27l-119 -195q-12 -21 -4 -35z" />
<glyph unicode="&#xd4;" horiz-adv-x="1638" d="M77 717q0 152 58 289.5t156.5 236.5t236.5 157.5t291 58.5t291 -58.5t237 -157.5t157 -236.5t58 -289.5t-58 -289.5t-157 -237t-237 -158t-291 -58.5t-291 58.5t-236.5 158t-156.5 237t-58 289.5zM266 717q0 -155 72.5 -283t199.5 -201.5t281 -73.5t281 73.5t199.5 201.5 t72.5 283t-72.5 283t-199.5 201.5t-281 73.5t-281 -73.5t-199.5 -201.5t-72.5 -283zM530.5 1585.5q-6.5 13.5 7.5 32.5l162 208q16 22 46 22h97h44q29 0 46 -22l162 -208q14 -19 7.5 -32.5t-29.5 -13.5h-101q-30 0 -46 23l-109 143l-109 -143q-16 -23 -46 -23h-102 q-23 0 -29.5 13.5z" />
<glyph unicode="&#xd5;" horiz-adv-x="1638" d="M77 717q0 152 58 289.5t156.5 236.5t236.5 157.5t291 58.5t291 -58.5t237 -157.5t157 -236.5t58 -289.5t-58 -289.5t-157 -237t-237 -158t-291 -58.5t-291 58.5t-236.5 158t-156.5 237t-58 289.5zM266 717q0 -155 72.5 -283t199.5 -201.5t281 -73.5t281 73.5t199.5 201.5 t72.5 283t-72.5 283t-199.5 201.5t-281 73.5t-281 -73.5t-199.5 -201.5t-72.5 -283zM514 1629q7 115 56 170t117 49.5t142 -58.5q37 -27 59.5 -40.5t42 -16.5t29.5 13.5t13 52.5q4 39 40 39h75q39 0 36 -40q-5 -87 -35 -140.5t-74 -69.5t-97 -3.5t-108 51.5q-37 28 -59.5 41 t-42.5 16t-30 -13t-13 -52q-4 -39 -40 -39h-75q-39 0 -36 40z" />
<glyph unicode="&#xd6;" horiz-adv-x="1638" d="M77 717q0 152 58 289.5t156.5 236.5t236.5 157.5t291 58.5t291 -58.5t237 -157.5t157 -236.5t58 -289.5t-58 -289.5t-157 -237t-237 -158t-291 -58.5t-291 58.5t-236.5 158t-156.5 237t-58 289.5zM266 717q0 -155 72.5 -283t199.5 -201.5t281 -73.5t281 73.5t199.5 201.5 t72.5 283t-72.5 283t-199.5 201.5t-281 73.5t-281 -73.5t-199.5 -201.5t-72.5 -283zM525 1628v113q0 38 38 38h113q38 0 38 -38v-113q0 -38 -38 -38h-113q-38 0 -38 38zM924 1628v113q0 38 38 38h114q38 0 38 -38v-113q0 -38 -38 -38h-114q-38 0 -38 38z" />
<glyph unicode="&#xd7;" horiz-adv-x="993" d="M133 471l246 246l-246 246q-29 29 2 61l56 55q30 30 62 -2l243 -243l243 243q32 32 62 2l57 -55q31 -31 1 -61l-246 -246l246 -246q30 -30 -1 -61l-57 -55q-31 -31 -62 1l-243 244l-243 -244q-31 -32 -62 -1l-56 55q-31 32 -2 61z" />
<glyph unicode="&#xd8;" horiz-adv-x="1656" d="M95 717q0 152 58 289.5t156.5 236.5t236.5 157.5t291 58.5q238 0 429 -134l71 85q21 24 54 24h62q28 0 35 -17t-11 -38l-114 -135q103 -103 160 -239t57 -288t-58 -289.5t-157 -237t-237 -158t-291 -58.5q-238 0 -429 134l-71 -84q-21 -24 -54 -24h-61q-28 0 -35.5 16.5 t10.5 37.5l114 136q-102 102 -159 238t-57 289zM284 717q0 -227 147 -385l716 851q-138 92 -310 92q-154 0 -281 -73.5t-199.5 -201.5t-72.5 -283zM528 250q136 -91 309 -91q154 0 281 73.5t199.5 201.5t72.5 283q0 226 -147 384z" />
<glyph unicode="&#xd9;" horiz-adv-x="1269" d="M133 430v960q0 44 44 44h102q44 0 44 -44v-953q0 -135 82.5 -206.5t229.5 -71.5t229.5 71.5t82.5 206.5v953q0 44 44 44h102q44 0 44 -44v-960q0 -214 -142.5 -335t-359.5 -121t-359.5 121t-142.5 335zM390.5 1829.5q-6.5 -13.5 7.5 -32.5l155 -203q16 -22 47 -22h90 q22 0 29 13.5t-4 32.5l-122 200q-13 25 -44 25h-128q-24 0 -30.5 -13.5z" />
<glyph unicode="&#xda;" horiz-adv-x="1269" d="M133 430v960q0 44 44 44h102q44 0 44 -44v-953q0 -135 82.5 -206.5t229.5 -71.5t229.5 71.5t82.5 206.5v953q0 44 44 44h102q44 0 44 -44v-960q0 -214 -142.5 -335t-359.5 -121t-359.5 121t-142.5 335zM537 1586q8 -14 31 -14h85q31 0 49 24l152 198q15 20 7.5 34.5 t-32.5 14.5h-121q-33 0 -48 -27l-119 -195q-12 -21 -4 -35z" />
<glyph unicode="&#xdb;" horiz-adv-x="1269" d="M133 430v960q0 44 44 44h102q44 0 44 -44v-953q0 -135 82.5 -206.5t229.5 -71.5t229.5 71.5t82.5 206.5v953q0 44 44 44h102q44 0 44 -44v-960q0 -214 -142.5 -335t-359.5 -121t-359.5 121t-142.5 335zM346.5 1580.5q-6.5 13.5 7.5 32.5l162 208q16 22 46 22h97h43 q30 0 47 -22l162 -208q14 -19 7.5 -32.5t-29.5 -13.5h-102q-30 0 -46 23l-109 143l-109 -143q-16 -23 -46 -23h-101q-23 0 -29.5 13.5z" />
<glyph unicode="&#xdc;" horiz-adv-x="1269" d="M133 430v960q0 44 44 44h102q44 0 44 -44v-953q0 -135 82.5 -206.5t229.5 -71.5t229.5 71.5t82.5 206.5v953q0 44 44 44h102q44 0 44 -44v-960q0 -214 -142.5 -335t-359.5 -121t-359.5 121t-142.5 335zM340 1623v113q0 38 38 38h114q38 0 38 -38v-113q0 -38 -38 -38h-114 q-38 0 -38 38zM740 1623v113q0 38 38 38h113q38 0 38 -38v-113q0 -38 -38 -38h-113q-38 0 -38 38z" />
<glyph unicode="&#xdd;" horiz-adv-x="1196" d="M43 1418.5q8 15.5 34 15.5h118q34 0 52 -30l351 -566l351 566q18 30 51 30h118q26 0 34.5 -15.5t-5.5 -37.5l-455 -725v-612q0 -44 -44 -44h-102q-44 0 -44 44v615l-453 722q-14 22 -6 37.5zM494 1586q-8 14 4 35l119 195q15 27 48 27h121q25 0 32.5 -14.5t-7.5 -34.5 l-151 -198q-18 -24 -50 -24h-85q-23 0 -31 14z" />
<glyph unicode="&#xde;" horiz-adv-x="1193" d="M154 44v1346q0 44 43 44h103q43 0 43 -44v-228h333q184 0 314.5 -130t130.5 -315q0 -184 -130.5 -315t-314.5 -131h-333v-227q0 -44 -43 -44h-103q-43 0 -43 44zM343 450h333q106 0 181 78.5t75 188.5q0 111 -75 189t-181 78h-333v-534z" />
<glyph unicode="&#xdf;" horiz-adv-x="1028" d="M136 44v1026q0 185 108.5 287t282.5 102q162 0 257.5 -85t95.5 -219q0 -65 -26.5 -124t-58 -94.5t-58 -73.5t-26.5 -66q0 -36 29 -78t70 -85t82.5 -91.5t70.5 -114.5t29 -137q0 -140 -98.5 -223.5t-285.5 -78.5q-43 2 -43 46v73q0 41 46 41q97 2 150 41t53 117 q0 49 -28.5 102t-69.5 99t-82 91.5t-69.5 96t-28.5 96.5q0 40 26 84t56.5 78.5t56.5 85t26 101.5q0 75 -49.5 112.5t-126.5 37.5q-40 0 -74.5 -10t-67 -33.5t-51 -69t-18.5 -108.5v-1026q0 -44 -44 -44h-91q-43 0 -43 44z" />
<glyph unicode="&#xe0;" horiz-adv-x="1028" d="M77 302q0 79 29.5 143t80.5 103.5t114.5 60t134.5 20.5q199 0 304 -119v145q0 115 -62 170.5t-160 55.5q-83 0 -143 -37.5t-74 -106.5q-13 -41 -46 -41h-90q-46 0 -43 46q18 139 127 223.5t269 84.5q175 0 286.5 -104.5t111.5 -285.5v-616q0 -44 -43 -44h-89 q-44 0 -44 44v62q-98 -132 -304 -132q-71 0 -135 21t-114.5 60.5t-80 103.5t-29.5 143zM255 302q0 -80 59 -129t174 -49q110 0 181 50.5t71 127.5q0 81 -69.5 129t-182.5 48q-115 0 -174 -48.5t-59 -128.5zM277.5 1425.5q6.5 13.5 30.5 13.5h127q31 0 45 -26l122 -200 q11 -19 3.5 -32.5t-29.5 -13.5h-90q-30 0 -47 23l-154 202q-14 20 -7.5 33.5z" />
<glyph unicode="&#xe1;" horiz-adv-x="1028" d="M77 302q0 79 29.5 143t80.5 103.5t114.5 60t134.5 20.5q199 0 304 -119v145q0 115 -62 170.5t-160 55.5q-83 0 -143 -37.5t-74 -106.5q-13 -41 -46 -41h-90q-46 0 -43 46q18 139 127 223.5t269 84.5q175 0 286.5 -104.5t111.5 -285.5v-616q0 -44 -43 -44h-89 q-44 0 -44 44v62q-98 -132 -304 -132q-71 0 -135 21t-114.5 60.5t-80 103.5t-29.5 143zM255 302q0 -80 59 -129t174 -49q110 0 181 50.5t71 127.5q0 81 -69.5 129t-182.5 48q-115 0 -174 -48.5t-59 -128.5zM423 1181.5q-8 14.5 4 35.5l119 195q15 27 48 27h121 q25 0 32.5 -15t-7.5 -35l-151 -198q-18 -24 -50 -24h-85q-23 0 -31 14.5z" />
<glyph unicode="&#xe2;" horiz-adv-x="1028" d="M77 302q0 79 29.5 143t80.5 103.5t114.5 60t134.5 20.5q199 0 304 -119v145q0 115 -62 170.5t-160 55.5q-83 0 -143 -37.5t-74 -106.5q-13 -41 -46 -41h-90q-46 0 -43 46q18 139 127 223.5t269 84.5q175 0 286.5 -104.5t111.5 -285.5v-616q0 -44 -43 -44h-89 q-44 0 -44 44v62q-98 -132 -304 -132q-71 0 -135 21t-114.5 60.5t-80 103.5t-29.5 143zM232.5 1175.5q-6.5 13.5 7.5 32.5l162 209q16 22 47 22h96h44q29 0 46 -22l162 -209q14 -19 7.5 -32.5t-29.5 -13.5h-101q-29 0 -46 24l-109 142l-109 -142q-17 -24 -46 -24h-102 q-23 0 -29.5 13.5zM255 302q0 -80 59 -129t174 -49q110 0 181 50.5t71 127.5q0 81 -69.5 129t-182.5 48q-115 0 -174 -48.5t-59 -128.5z" />
<glyph unicode="&#xe3;" horiz-adv-x="1028" d="M77 302q0 79 29.5 143t80.5 103.5t114.5 60t134.5 20.5q199 0 304 -119v145q0 115 -62 170.5t-160 55.5q-83 0 -143 -37.5t-74 -106.5q-13 -41 -46 -41h-90q-46 0 -43 46q18 139 127 223.5t269 84.5q175 0 286.5 -104.5t111.5 -285.5v-616q0 -44 -43 -44h-89 q-44 0 -44 44v62q-98 -132 -304 -132q-71 0 -135 21t-114.5 60.5t-80 103.5t-29.5 143zM216 1219q5 87 35 140.5t74.5 69.5t97.5 3.5t108 -51.5q37 -28 59 -41t42 -16t30 13t13 52q4 39 40 39h75q39 0 36 -39q-5 -87 -34.5 -140.5t-73.5 -69.5t-97 -3.5t-108 51.5 q-37 27 -59.5 40.5t-43 16.5t-30.5 -13t-13 -52q-4 -40 -40 -40h-75q-39 0 -36 40zM255 302q0 -80 59 -129t174 -49q110 0 181 50.5t71 127.5q0 81 -69.5 129t-182.5 48q-115 0 -174 -48.5t-59 -128.5z" />
<glyph unicode="&#xe4;" horiz-adv-x="1028" d="M77 302q0 79 29.5 143t80.5 103.5t114.5 60t134.5 20.5q199 0 304 -119v145q0 115 -62 170.5t-160 55.5q-83 0 -143 -37.5t-74 -106.5q-13 -41 -46 -41h-90q-46 0 -43 46q18 139 127 223.5t269 84.5q175 0 286.5 -104.5t111.5 -285.5v-616q0 -44 -43 -44h-89 q-44 0 -44 44v62q-98 -132 -304 -132q-71 0 -135 21t-114.5 60.5t-80 103.5t-29.5 143zM227 1218v114q0 38 38 38h113q38 0 38 -38v-114q0 -38 -38 -38h-113q-38 0 -38 38zM255 302q0 -80 59 -129t174 -49q110 0 181 50.5t71 127.5q0 81 -69.5 129t-182.5 48 q-115 0 -174 -48.5t-59 -128.5zM626 1218v114q0 38 38 38h114q38 0 38 -38v-114q0 -38 -38 -38h-114q-38 0 -38 38z" />
<glyph unicode="&#xe5;" horiz-adv-x="1028" d="M77 302q0 79 29.5 143t80.5 103.5t114.5 60t134.5 20.5q199 0 304 -119v145q0 115 -62 170.5t-160 55.5q-83 0 -143 -37.5t-74 -106.5q-13 -41 -46 -41h-90q-46 0 -43 46q18 139 127 223.5t269 84.5q175 0 286.5 -104.5t111.5 -285.5v-616q0 -44 -43 -44h-89 q-44 0 -44 44v62q-98 -132 -304 -132q-71 0 -135 21t-114.5 60.5t-80 103.5t-29.5 143zM255 302q0 -80 59 -129t174 -49q110 0 181 50.5t71 127.5q0 81 -69.5 129t-182.5 48q-115 0 -174 -48.5t-59 -128.5zM290 1341q0 94 64.5 156t166.5 62q103 0 167 -62t64 -156 t-64 -155.5t-167 -61.5q-102 0 -166.5 61.5t-64.5 155.5zM425 1341q0 -41 25.5 -66.5t70.5 -25.5q47 0 73 25.5t26 66.5t-26 67t-73 26q-45 0 -70.5 -26t-25.5 -67z" />
<glyph unicode="&#xe6;" horiz-adv-x="1716" d="M77 302q0 79 29.5 143t80.5 103.5t114.5 60t134.5 20.5q190 0 304 -105v131l50 2l-50 -2q0 115 -62 170.5t-160 55.5q-83 0 -143 -37.5t-74 -106.5q-13 -41 -46 -41h-90q-46 0 -43 46q18 138 125.5 223t260.5 85q122 0 214.5 -52t138.5 -147q56 94 146.5 146.5 t209.5 52.5q106 0 191 -44t138.5 -119t81.5 -171.5t28 -206.5q0 -25 -1 -37q-4 -41 -46 -41h-134h-552q17 -142 93.5 -219t200.5 -77q75 0 128 31.5t77 83.5q16 35 49 35h100q23 0 34 -13t4 -33q-39 -121 -143 -192.5t-244 -71.5q-248 0 -365 196q-45 -94 -142.5 -145.5 t-235.5 -51.5q-176 0 -289 86.5t-113 241.5zM255 302q0 -79 63 -128.5t175 -49.5q114 0 180.5 50t66.5 128q0 81 -69.5 129t-182.5 48q-115 0 -174 -48.5t-59 -128.5zM923 587h556q-12 145 -84.5 220.5t-180.5 75.5q-130 0 -202.5 -79t-88.5 -217z" />
<glyph unicode="&#xe7;" horiz-adv-x="1169" d="M77 512q0 150 69.5 273.5t193.5 194t276 70.5q166 0 297.5 -88t185.5 -231q9 -22 -2 -36t-34 -14h-100q-35 0 -53 32q-42 76 -120 119.5t-174 43.5q-153 0 -257 -105t-104 -259t104 -259t257 -105q97 0 175 44t119 119q17 32 53 32h100q23 0 34 -14t2 -36 q-47 -126 -156.5 -210.5t-251.5 -103.5v-72q79 -15 127 -57.5t48 -106.5q0 -201 -390 -187q-40 3 -40 40v58q0 38 42 38q114 -7 173 10.5t59 53.5q0 58 -132 71q-38 5 -38 40v112q-203 26 -333 175.5t-130 357.5z" />
<glyph unicode="&#xe8;" horiz-adv-x="1169" d="M77 512q0 151 65 273t187 193.5t278 71.5q150 0 266.5 -75.5t176.5 -198t60 -267.5q0 -13 -2 -37q-4 -41 -46 -41h-134h-667q23 -140 117.5 -218t233.5 -78q85 0 152.5 33.5t104.5 88.5q22 28 53 28h98q24 0 35.5 -12.5t2.5 -32.5q-55 -122 -174.5 -194t-274.5 -72 q-237 0 -384.5 152t-147.5 386zM260 587h669q-19 144 -109.5 220t-212.5 76q-141 0 -233.5 -80.5t-113.5 -215.5zM362.5 1423q6.5 13 30.5 13h128q31 0 44 -25l122 -200q11 -19 4 -32.5t-29 -13.5h-91q-30 0 -46 22l-155 203q-14 20 -7.5 33z" />
<glyph unicode="&#xe9;" horiz-adv-x="1169" d="M77 512q0 151 65 273t187 193.5t278 71.5q150 0 266.5 -75.5t176.5 -198t60 -267.5q0 -13 -2 -37q-4 -41 -46 -41h-134h-667q23 -140 117.5 -218t233.5 -78q85 0 152.5 33.5t104.5 88.5q22 28 53 28h98q24 0 35.5 -12.5t2.5 -32.5q-55 -122 -174.5 -194t-274.5 -72 q-237 0 -384.5 152t-147.5 386zM260 587h669q-19 144 -109.5 220t-212.5 76q-141 0 -233.5 -80.5t-113.5 -215.5zM509 1179q-8 14 4 35l119 195q15 27 47 27h122q25 0 32 -15t-8 -35l-151 -197q-18 -24 -49 -24h-85q-23 0 -31 14z" />
<glyph unicode="&#xea;" horiz-adv-x="1169" d="M77 512q0 151 65 273t187 193.5t278 71.5q150 0 266.5 -75.5t176.5 -198t60 -267.5q0 -13 -2 -37q-4 -41 -46 -41h-134h-667q23 -140 117.5 -218t233.5 -78q85 0 152.5 33.5t104.5 88.5q22 28 53 28h98q24 0 35.5 -12.5t2.5 -32.5q-55 -122 -174.5 -194t-274.5 -72 q-237 0 -384.5 152t-147.5 386zM260 587h669q-19 144 -109.5 220t-212.5 76q-141 0 -233.5 -80.5t-113.5 -215.5zM318.5 1173.5q-6.5 13.5 7.5 32.5l162 208q16 22 46 22h97h43q30 0 46 -22l163 -208q14 -19 7.5 -32.5t-29.5 -13.5h-102q-30 0 -46 23l-109 143l-109 -143 q-16 -23 -46 -23h-101q-23 0 -29.5 13.5z" />
<glyph unicode="&#xeb;" horiz-adv-x="1169" d="M77 512q0 151 65 273t187 193.5t278 71.5q150 0 266.5 -75.5t176.5 -198t60 -267.5q0 -13 -2 -37q-4 -41 -46 -41h-134h-667q23 -140 117.5 -218t233.5 -78q85 0 152.5 33.5t104.5 88.5q22 28 53 28h98q24 0 35.5 -12.5t2.5 -32.5q-55 -122 -174.5 -194t-274.5 -72 q-237 0 -384.5 152t-147.5 386zM260 587h669q-19 144 -109.5 220t-212.5 76q-141 0 -233.5 -80.5t-113.5 -215.5zM312 1215v114q0 38 38 38h114q38 0 38 -38v-114q0 -37 -38 -37h-114q-38 0 -38 37zM712 1215v114q0 38 38 38h113q38 0 38 -38v-114q0 -37 -38 -37h-113 q-38 0 -38 37z" />
<glyph unicode="&#xec;" horiz-adv-x="450" d="M24.5 1419.5q9.5 14.5 34.5 14.5h115q36 0 49 -36l68 -191q7 -23 -2.5 -36.5t-33.5 -13.5h-83q-36 0 -51 31l-95 194q-11 23 -1.5 37.5zM136 44v936q0 44 43 44h91q44 0 44 -44v-936q0 -44 -44 -44h-91q-43 0 -43 44z" />
<glyph unicode="&#xed;" horiz-adv-x="450" d="M136 44v936q0 44 43 44h91q44 0 44 -44v-936q0 -44 -44 -44h-91q-43 0 -43 44zM158 1207q-7 -23 2.5 -36.5t33.5 -13.5h83q35 0 50 31l95 194q11 23 2 37.5t-34 14.5h-115q-37 0 -50 -36z" />
<glyph unicode="&#xee;" horiz-adv-x="450" d="M-25.5 1172q-8.5 15 5.5 37l128 196q20 29 54 29h85h41q34 0 54 -29l128 -196q14 -22 5.5 -37t-34.5 -15h-92q-35 0 -54 29l-71 114l-71 -114q-19 -29 -53 -29h-91q-26 0 -34.5 15zM136 44v936q0 44 43 44h91q44 0 44 -44v-936q0 -44 -44 -44h-91q-43 0 -43 44z" />
<glyph unicode="&#xef;" horiz-adv-x="450" d="M-24 1219v102q0 43 44 43h102q44 0 44 -43v-102q0 -44 -44 -44h-102q-44 0 -44 44zM136 44v936q0 44 43 44h91q44 0 44 -44v-936q0 -44 -44 -44h-91q-43 0 -43 44zM284 1219v102q0 43 43 43h103q43 0 43 -43v-102q0 -44 -43 -44h-103q-43 0 -43 44z" />
<glyph unicode="&#xf0;" horiz-adv-x="1189" d="M77 471q0 107 43 200t115 155t167.5 94t197.5 23q36 -1 78 -10l-154 209l-189 -107q-23 -13 -37.5 -5t-14.5 34v49q0 34 30 52l137 78l-102 138q-16 23 -8.5 38t34.5 15h108q35 0 53 -26l61 -83l182 104q22 13 37 5t15 -34v-49q0 -34 -30 -52l-130 -74l349 -467 q94 -127 94 -287q0 -112 -42.5 -206.5t-114 -157t-165 -97.5t-196.5 -35t-196.5 35t-165 97.5t-114 157t-42.5 206.5zM255 471q0 -148 98.5 -237t241.5 -89t241.5 89t98.5 237q0 114 -55 188q-98 129 -282 129q-150 0 -246.5 -87t-96.5 -230z" />
<glyph unicode="&#xf1;" horiz-adv-x="1071" d="M136 44v936q0 44 43 44h91q44 0 44 -44v-82q100 152 303 152q147 0 245 -104.5t98 -280.5v-621q0 -44 -44 -44h-91q-43 0 -43 44v614q0 107 -59 165t-154 58q-50 0 -94 -16t-81 -49.5t-58.5 -93t-21.5 -139.5v-539q0 -44 -44 -44h-91q-43 0 -43 44zM241 1219 q5 87 35 140.5t74.5 69.5t97.5 3.5t108 -51.5q37 -28 59 -41t42 -16t30 13t13 52q4 39 39 39h76q38 0 35 -39q-5 -87 -34.5 -140.5t-73.5 -69.5t-97 -3.5t-108 51.5q-37 27 -59.5 40.5t-43 16.5t-30.5 -13t-13 -52q-4 -40 -39 -40h-76q-38 0 -35 40z" />
<glyph unicode="&#xf2;" horiz-adv-x="1232" d="M77 512q0 149 72 273t195.5 194.5t271.5 70.5t272 -70.5t196 -194.5t72 -273t-72 -273t-196 -194.5t-272 -70.5t-271.5 70.5t-195.5 194.5t-72 273zM255 512q0 -155 104 -260t257 -105t257.5 105t104.5 260t-104.5 260t-257.5 105t-257 -105t-104 -260zM372.5 1425.5 q-6.5 -13.5 7.5 -33.5l155 -202q17 -23 46 -23h90q22 0 29.5 13.5t-3.5 32.5l-122 200q-14 26 -45 26h-127q-24 0 -30.5 -13.5z" />
<glyph unicode="&#xf3;" horiz-adv-x="1232" d="M77 512q0 149 72 273t195.5 194.5t271.5 70.5t272 -70.5t196 -194.5t72 -273t-72 -273t-196 -194.5t-272 -70.5t-271.5 70.5t-195.5 194.5t-72 273zM255 512q0 -155 104 -260t257 -105t257.5 105t104.5 260t-104.5 260t-257.5 105t-257 -105t-104 -260zM518 1181.5 q8 -14.5 31 -14.5h85q32 0 50 24l151 198q15 20 7.5 35t-32.5 15h-121q-32 0 -47 -27l-120 -195q-12 -21 -4 -35.5z" />
<glyph unicode="&#xf4;" horiz-adv-x="1232" d="M77 512q0 149 72 273t195.5 194.5t271.5 70.5t272 -70.5t196 -194.5t72 -273t-72 -273t-196 -194.5t-272 -70.5t-271.5 70.5t-195.5 194.5t-72 273zM255 512q0 -155 104 -260t257 -105t257.5 105t104.5 260t-104.5 260t-257.5 105t-257 -105t-104 -260zM327.5 1175.5 q-6.5 13.5 7.5 32.5l163 209q16 22 46 22h97h43q30 0 46 -22l162 -209q14 -19 7.5 -32.5t-29.5 -13.5h-101q-29 0 -46 24l-109 142l-109 -142q-17 -24 -46 -24h-102q-23 0 -29.5 13.5z" />
<glyph unicode="&#xf5;" horiz-adv-x="1232" d="M77 512q0 149 72 273t195.5 194.5t271.5 70.5t272 -70.5t196 -194.5t72 -273t-72 -273t-196 -194.5t-272 -70.5t-271.5 70.5t-195.5 194.5t-72 273zM255 512q0 -155 104 -260t257 -105t257.5 105t104.5 260t-104.5 260t-257.5 105t-257 -105t-104 -260zM311 1219 q5 87 35 140.5t74.5 69.5t97.5 3.5t108 -51.5q37 -28 59.5 -41t42.5 -16t30 13t13 52q4 39 39 39h75q39 0 36 -39q-5 -87 -34.5 -140.5t-73.5 -69.5t-97 -3.5t-108 51.5q-37 27 -59.5 40.5t-43 16.5t-30.5 -13t-13 -52q-4 -40 -40 -40h-75q-39 0 -36 40z" />
<glyph unicode="&#xf6;" horiz-adv-x="1232" d="M77 512q0 149 72 273t195.5 194.5t271.5 70.5t272 -70.5t196 -194.5t72 -273t-72 -273t-196 -194.5t-272 -70.5t-271.5 70.5t-195.5 194.5t-72 273zM255 512q0 -155 104 -260t257 -105t257.5 105t104.5 260t-104.5 260t-257.5 105t-257 -105t-104 -260zM322 1218v114 q0 38 38 38h114q37 0 37 -38v-114q0 -38 -37 -38h-114q-38 0 -38 38zM721 1218v114q0 38 38 38h114q38 0 38 -38v-114q0 -38 -38 -38h-114q-38 0 -38 38z" />
<glyph unicode="&#xf7;" horiz-adv-x="1177" d="M113 675v83q0 44 43 44h865q44 0 44 -44v-83q0 -43 -44 -43h-865q-43 0 -43 43zM458 329q0 55 37.5 92.5t93.5 37.5q55 0 92.5 -37.5t37.5 -92.5q0 -56 -37.5 -93.5t-92.5 -37.5t-93 38t-38 93zM458 1105q0 55 37.5 92.5t93.5 37.5q55 0 92.5 -37.5t37.5 -92.5 q0 -56 -37.5 -93.5t-92.5 -37.5t-93 38t-38 93z" />
<glyph unicode="&#xf8;" horiz-adv-x="1232" d="M77 512q0 149 72 273t195.5 194.5t271.5 70.5q166 0 302 -90l34 40q21 24 55 24h35q28 0 35.5 -16.5t-10.5 -37.5l-66 -78q73 -73 114 -171t41 -209q0 -149 -72 -273t-196 -194.5t-272 -70.5q-170 0 -308 95l-38 -45q-21 -24 -54 -24h-39q-26 0 -32.5 16.5t11.5 37.5 l70 84q-149 154 -149 374zM255 512q0 -138 85 -239l465 552q-87 52 -189 52q-153 0 -257 -105t-104 -260zM421 203q90 -56 195 -56q153 0 257.5 105t104.5 260q0 142 -90 245z" />
<glyph unicode="&#xf9;" horiz-adv-x="1071" d="M111 359v621q0 44 43 44h91q44 0 44 -44v-614q0 -107 58.5 -165t153.5 -58q50 0 94 16t81.5 49.5t59 93t21.5 139.5v539q0 44 43 44h91q44 0 44 -44v-936q0 -44 -44 -44h-91q-43 0 -43 44v82q-100 -152 -303 -152q-147 0 -245 104.5t-98 280.5zM282.5 1420 q6.5 14 30.5 14h127q31 0 45 -26l122 -200q11 -19 3.5 -32.5t-29.5 -13.5h-90q-30 0 -47 23l-154 202q-14 19 -7.5 33z" />
<glyph unicode="&#xfa;" horiz-adv-x="1071" d="M111 359v621q0 44 43 44h91q44 0 44 -44v-614q0 -107 58.5 -165t153.5 -58q50 0 94 16t81.5 49.5t59 93t21.5 139.5v539q0 44 43 44h91q44 0 44 -44v-936q0 -44 -44 -44h-91q-43 0 -43 44v82q-100 -152 -303 -152q-147 0 -245 104.5t-98 280.5zM428 1176q-8 14 4 35 l119 195q15 28 48 28h121q25 0 32.5 -15t-7.5 -35l-151 -198q-18 -24 -50 -24h-85q-23 0 -31 14z" />
<glyph unicode="&#xfb;" horiz-adv-x="1071" d="M111 359v621q0 44 43 44h91q44 0 44 -44v-614q0 -107 58.5 -165t153.5 -58q50 0 94 16t81.5 49.5t59 93t21.5 139.5v539q0 44 43 44h91q44 0 44 -44v-936q0 -44 -44 -44h-91q-43 0 -43 44v82q-100 -152 -303 -152q-147 0 -245 104.5t-98 280.5zM237.5 1170.5 q-6.5 13.5 7.5 32.5l163 209q16 22 46 22h96h44q30 0 46 -22l162 -209q14 -19 7.5 -32.5t-29.5 -13.5h-101q-29 0 -46 24l-109 142l-109 -142q-17 -24 -46 -24h-102q-23 0 -29.5 13.5z" />
<glyph unicode="&#xfc;" horiz-adv-x="1071" d="M111 359v621q0 44 43 44h91q44 0 44 -44v-614q0 -107 58.5 -165t153.5 -58q50 0 94 16t81.5 49.5t59 93t21.5 139.5v539q0 44 43 44h91q44 0 44 -44v-936q0 -44 -44 -44h-91q-43 0 -43 44v82q-100 -152 -303 -152q-147 0 -245 104.5t-98 280.5zM232 1213v114q0 37 38 37 h113q38 0 38 -37v-114q0 -38 -38 -38h-113q-38 0 -38 38zM631 1213v114q0 37 38 37h114q38 0 38 -37v-114q0 -38 -38 -38h-114q-38 0 -38 38z" />
<glyph unicode="&#xfd;" horiz-adv-x="983" d="M36 974q-9 22 0.5 36t33.5 14h98q38 0 50 -33l294 -733l254 731q12 35 50 35h99q24 0 34 -13.5t2 -36.5l-472 -1349q-12 -35 -50 -35h-100q-24 0 -33.5 13.5t-1.5 36.5l129 370zM393 1176q8 -14 31 -14h85q32 0 50 24l151 198q15 20 8 35t-32 15h-122q-32 0 -47 -28 l-120 -195q-12 -21 -4 -35z" />
<glyph unicode="&#xfe;" horiz-adv-x="1296" d="M136 -366v1756q0 44 43 44h91q44 0 44 -44v-540q63 94 161.5 147t224.5 53q140 0 259.5 -70.5t189.5 -194.5t70 -273t-70 -273t-189.5 -194.5t-259.5 -70.5q-126 0 -224.5 53t-161.5 147v-540q0 -44 -44 -44h-91q-43 0 -43 44zM314 512q0 -157 104 -262t259 -105 t259.5 105t104.5 262t-104.5 262t-259.5 105t-259 -105t-104 -262z" />
<glyph unicode="&#xff;" horiz-adv-x="983" d="M36 974q-9 22 0.5 36t33.5 14h98q38 0 50 -33l294 -733l254 731q12 35 50 35h99q24 0 34 -13.5t2 -36.5l-472 -1349q-12 -35 -50 -35h-100q-24 0 -33.5 13.5t-1.5 36.5l129 370zM197 1213v114q0 37 38 37h114q38 0 38 -37v-114q0 -38 -38 -38h-114q-38 0 -38 38z M596 1213v114q0 37 38 37h114q38 0 38 -37v-114q0 -38 -38 -38h-114q-38 0 -38 38z" />
<glyph unicode="&#x152;" horiz-adv-x="1873" d="M77 717q0 204 93 374t259 269t370 99q105 0 195 -25h189h561q43 0 43 -44v-93q0 -44 -43 -44h-561v-440h525q44 0 44 -44v-91q0 -44 -44 -44h-525v-454h571q44 0 44 -43v-93q0 -44 -44 -44h-689h-71q-93 -26 -195 -26q-204 0 -370 99t-259 269.5t-93 374.5zM266 717 q0 -238 150.5 -398t382.5 -160q109 0 195 30v1055q-89 31 -195 31q-232 0 -382.5 -160t-150.5 -398z" />
<glyph unicode="&#x153;" horiz-adv-x="2070" d="M77 512q0 112 41 212t111.5 171.5t170.5 113t214 41.5q149 0 267.5 -73t182.5 -199q59 127 172.5 199.5t271.5 72.5q150 0 266.5 -75.5t176.5 -198t60 -267.5q0 -25 -1 -37q-4 -41 -46 -41h-135h-667q23 -140 117.5 -218t233.5 -78q85 0 153 33.5t105 88.5q22 28 52 28 h99q24 0 35 -12.5t1 -32.5q-55 -122 -174 -194t-274 -72q-159 0 -273.5 72t-173.5 199q-64 -125 -182 -198t-267 -73q-114 0 -214 41.5t-170.5 113t-111.5 171.5t-41 212zM255 512q0 -157 101.5 -261t259.5 -104q153 0 257.5 105t104.5 260t-104.5 260t-257.5 105 q-158 0 -259.5 -104t-101.5 -261zM1161 587h669q-19 144 -109.5 220t-212.5 76q-141 0 -233.5 -80.5t-113.5 -215.5z" />
<glyph unicode="&#x178;" horiz-adv-x="1196" d="M43 1418.5q8 15.5 34 15.5h118q34 0 52 -30l351 -566l351 566q18 30 51 30h118q26 0 34.5 -15.5t-5.5 -37.5l-455 -725v-612q0 -44 -44 -44h-102q-44 0 -44 44v615l-453 722q-14 22 -6 37.5zM298 1623v113q0 38 38 38h114q37 0 37 -38v-113q0 -38 -37 -38h-114 q-38 0 -38 38zM697 1623v113q0 38 38 38h114q38 0 38 -38v-113q0 -38 -38 -38h-114q-38 0 -38 38z" />
<glyph unicode="&#x2c6;" horiz-adv-x="712" d="M69.5 1170.5q-6.5 13.5 7.5 32.5l163 209q16 22 46 22h96h44q29 0 46 -22l162 -209q14 -19 7.5 -32.5t-29.5 -13.5h-101q-29 0 -46 24l-109 142l-109 -142q-17 -24 -46 -24h-102q-23 0 -29.5 13.5z" />
<glyph unicode="&#x2dc;" horiz-adv-x="696" d="M43 1214q5 87 35 140.5t74.5 69.5t97.5 3.5t108 -51.5q37 -28 59 -41t42 -16t30 13t13 52q4 39 40 39h75q39 0 36 -40q-7 -115 -56 -170t-116.5 -49.5t-141.5 58.5q-29 22 -48.5 34t-38 19t-29.5 2.5t-19 -20t-10 -44.5q-4 -39 -40 -39h-75q-39 0 -36 40z" />
<glyph unicode="&#x2000;" horiz-adv-x="982" />
<glyph unicode="&#x2001;" horiz-adv-x="1964" />
<glyph unicode="&#x2002;" horiz-adv-x="982" />
<glyph unicode="&#x2003;" horiz-adv-x="1964" />
<glyph unicode="&#x2004;" horiz-adv-x="654" />
<glyph unicode="&#x2005;" horiz-adv-x="491" />
<glyph unicode="&#x2006;" horiz-adv-x="327" />
<glyph unicode="&#x2007;" horiz-adv-x="327" />
<glyph unicode="&#x2008;" horiz-adv-x="245" />
<glyph unicode="&#x2009;" horiz-adv-x="392" />
<glyph unicode="&#x200a;" horiz-adv-x="109" />
<glyph unicode="&#x2010;" horiz-adv-x="1054" d="M154 585v85q0 44 43 44h661q43 0 43 -44v-85q0 -43 -43 -43h-661q-43 0 -43 43z" />
<glyph unicode="&#x2011;" horiz-adv-x="1054" d="M154 585v85q0 44 43 44h661q43 0 43 -44v-85q0 -43 -43 -43h-661q-43 0 -43 43z" />
<glyph unicode="&#x2012;" horiz-adv-x="1054" d="M154 585v85q0 44 43 44h661q43 0 43 -44v-85q0 -43 -43 -43h-661q-43 0 -43 43z" />
<glyph unicode="&#x2013;" horiz-adv-x="1341" d="M154 585v85q0 44 43 44h947q44 0 44 -44v-85q0 -43 -44 -43h-947q-43 0 -43 43z" />
<glyph unicode="&#x2014;" horiz-adv-x="1546" d="M154 585v85q0 44 43 44h1152q44 0 44 -44v-85q0 -43 -44 -43h-1152q-43 0 -43 43z" />
<glyph unicode="&#x2018;" d="M138 995v177q0 108 48.5 177.5t138.5 89.5q15 3 24 -5.5t9 -23.5v-32q0 -25 -25 -36q-41 -15 -61.5 -53t-20.5 -117h64q43 0 43 -44v-133q0 -43 -43 -43h-133q-44 0 -44 43z" />
<glyph unicode="&#x2019;" d="M138 976v31q0 25 26 36q40 15 60.5 53t20.5 117h-63q-44 0 -44 44v133q0 44 44 44h133q43 0 43 -44v-177q0 -108 -48 -177.5t-138 -89.5q-15 -3 -24.5 6t-9.5 24z" />
<glyph unicode="&#x201a;" d="M138 44v133q0 43 44 43h133q43 0 43 -43v-177q0 -108 -48 -177.5t-138 -89.5q-15 -3 -24.5 5.5t-9.5 23.5v32q0 25 26 36q40 15 60.5 53t20.5 117h-63q-44 0 -44 44z" />
<glyph unicode="&#x201c;" horiz-adv-x="815" d="M138 995v177q0 108 48.5 177.5t138.5 89.5q15 3 24 -5.5t9 -23.5v-32q0 -25 -25 -36q-41 -15 -61.5 -53t-20.5 -117h64q43 0 43 -44v-133q0 -43 -43 -43h-133q-44 0 -44 43zM456 995v177q0 108 48 177.5t138 89.5q15 3 24.5 -5.5t9.5 -23.5v-32q0 -25 -26 -36 q-40 -15 -60.5 -53t-20.5 -117h63q44 0 44 -44v-133q0 -43 -44 -43h-133q-43 0 -43 43z" />
<glyph unicode="&#x201d;" horiz-adv-x="815" d="M138 976v31q0 25 26 36q40 15 60.5 53t20.5 117h-63q-44 0 -44 44v133q0 44 44 44h133q43 0 43 -44v-177q0 -108 -48 -177.5t-138 -89.5q-15 -3 -24.5 6t-9.5 24zM456 976v31q0 25 25 36q41 15 61.5 53t20.5 117h-64q-43 0 -43 44v133q0 44 43 44h133q44 0 44 -44v-177 q0 -108 -48.5 -177.5t-138.5 -89.5q-15 -3 -24 5.5t-9 24.5z" />
<glyph unicode="&#x201e;" horiz-adv-x="815" d="M138 44v133q0 43 44 43h133q43 0 43 -43v-177q0 -108 -48 -177.5t-138 -89.5q-15 -3 -24.5 5.5t-9.5 23.5v32q0 25 26 36q40 15 60.5 53t20.5 117h-63q-44 0 -44 44zM456 44v133q0 43 43 43h133q44 0 44 -43v-177q0 -108 -48.5 -177.5t-138.5 -89.5q-15 -3 -24 5.5 t-9 23.5v32q0 25 25 36q41 15 61.5 53t20.5 117h-64q-43 0 -43 44z" />
<glyph unicode="&#x2022;" horiz-adv-x="655" d="M97 719q0 95 68 161.5t165 66.5q94 0 161 -66.5t67 -161.5q0 -97 -66.5 -165t-161.5 -68q-97 0 -165 68t-68 165z" />
<glyph unicode="&#x2026;" horiz-adv-x="1327" d="M138 44v133q0 43 44 43h133q43 0 43 -43v-133q0 -44 -43 -44h-133q-44 0 -44 44zM553 44v133q0 43 43 43h134q43 0 43 -43v-133q0 -44 -43 -44h-134q-43 0 -43 44zM968 44v133q0 43 43 43h133q44 0 44 -43v-133q0 -44 -44 -44h-133q-43 0 -43 44z" />
<glyph unicode="&#x202f;" horiz-adv-x="392" />
<glyph unicode="&#x2039;" horiz-adv-x="696" d="M156 603q-20 30 0 60l190 315q17 29 52 29h98q26 0 34 -15t-5 -38l-193 -321l193 -322q13 -23 5 -37.5t-34 -14.5h-98q-35 0 -52 29z" />
<glyph unicode="&#x203a;" horiz-adv-x="696" d="M165 273.5q-8 14.5 5 37.5l194 322l-194 321q-13 23 -5 38t34 15h98q35 0 52 -29l191 -315q20 -30 0 -60l-191 -315q-17 -29 -52 -29h-98q-26 0 -34 14.5z" />
<glyph unicode="&#x205f;" horiz-adv-x="491" />
<glyph unicode="&#x20ac;" horiz-adv-x="1286" d="M26 580v50q0 41 41 41h98q0 7 -0.5 22.5t-0.5 23.5q0 42 1 62h-98q-41 0 -41 41v50q0 41 41 41h111q39 255 178.5 401.5t360.5 146.5q200 0 331 -120t170 -331q4 -22 -6.5 -34.5t-32.5 -12.5h-105q-38 0 -46 39q-28 133 -108.5 204t-202.5 71q-139 0 -228 -94t-120 -270 h445q41 0 41 -41v-50q0 -41 -41 -41h-459q-2 -40 -2 -62q0 -31 1 -46h460q41 0 41 -41v-50q0 -41 -41 -41h-448q29 -184 119 -282t232 -98q125 0 207 75.5t108 214.5q7 40 47 40h104q22 0 33.5 -12.5t7.5 -34.5q-39 -218 -171 -343t-336 -125q-225 0 -365 151t-176 414h-109 q-41 0 -41 41z" />
<glyph unicode="&#x2122;" horiz-adv-x="952" d="M77 1367v45q0 22 21 22h189h92q21 0 21 -22v-45q0 -22 -21 -22h-92v-299q0 -22 -21 -22h-53q-22 0 -22 22v299h-93q-21 0 -21 22zM447 1046v366q0 22 21 22h52h18q18 0 25 -16l99 -202l98 202q7 16 25 16h49h19q21 0 21 -22v-366q0 -22 -21 -22h-53q-21 0 -21 22v223 l-71 -142q-7 -15 -25 -15h-43q-18 0 -25 15l-74 147v-228q0 -22 -21 -22h-52q-21 0 -21 22z" />
<glyph unicode="&#x25fc;" horiz-adv-x="1024" d="M0 0v1024h1024v-1024h-1024z" />
<glyph unicode="&#xfb03;" horiz-adv-x="1624" d="M31 895v85q0 44 43 44h122v31q0 196 103.5 302t299.5 104q21 0 32.5 -12t11.5 -33v-85q0 -40 -46 -42q-112 0 -167.5 -57t-55.5 -177v-31h269h111v51q0 202 113.5 303.5t333.5 101.5q72 0 172 -18q39 -9 39 -47v-77q0 -21 -12.5 -32.5t-34.5 -8.5q-80 11 -164 11 q-139 0 -204 -52.5t-65 -180.5v-51h458h55q44 0 44 -44v-936q0 -44 -44 -44h-91q-43 0 -43 44v808h-379v-808q0 -44 -44 -44h-91q-43 0 -43 44v808h-165h-215v-808q0 -44 -44 -44h-91q-43 0 -43 44v808h-122q-43 0 -43 43z" />
<glyph unicode="&#xfb04;" horiz-adv-x="1624" d="M31 895v85q0 44 43 44h122v31q0 196 103.5 302t299.5 104q21 0 32.5 -12t11.5 -33v-85q0 -40 -46 -42q-112 0 -167.5 -57t-55.5 -177v-31h269h111v51q0 202 113.5 303.5t333.5 101.5q115 0 249 -24q39 -8 39 -46v-1366q0 -44 -44 -44h-91q-43 0 -43 44v1272q-47 5 -110 5 q-137 0 -203 -58t-66 -188v-51h169q43 0 43 -44v-85q0 -43 -43 -43h-169v-808q0 -44 -44 -44h-91q-43 0 -43 44v808h-165h-215v-808q0 -44 -44 -44h-91q-43 0 -43 44v808h-122q-43 0 -43 43z" />
</font>
</defs>
</svg>
